NunitoSans-M0XghtMin250.ufo
<glyph name="exclam" format="2">
  <advance width="211"/>
  <unicode hex="0021"/>
  <outline>
    <contour>
      <point x="92" y="162" type="line"/>
      <point x="119" y="162" type="line"/>
      <point x="132" y="705" type="line"/>
      <point x="79" y="705" type="line"/>
    </contour>
    <contour>
      <point x="71" y="0" type="line"/>
      <point x="140" y="0" type="line"/>
      <point x="140" y="70" type="line"/>
      <point x="71" y="70" type="line"/>
    </contour>
  </outline>
</glyph>
<glyph name="quotesingle" format="2">
  <advance width="202"/>
  <unicode hex="0027"/>
  <outline>
    <contour>
      <point x="88" y="440" type="line"/>
      <point x="116" y="440" type="line"/>
      <point x="127" y="705" type="line"/>
      <point x="75" y="705" type="line"/>
    </contour>
  </outline>
</glyph>
<glyph name="one" format="2">
  <advance width="600"/>
  <unicode hex="0031"/>
  <outline>
    <contour>
      <point x="138" y="0" type="line"/>
      <point x="494" y="0" type="line"/>
      <point x="494" y="39" type="line"/>
      <point x="342" y="39" type="line"/>
      <point x="342" y="705" type="line"/>
      <point x="311" y="705" type="line"/>
      <point x="148" y="595" type="line"/>
      <point x="170" y="562" type="line"/>
      <point x="327" y="667" type="line"/>
      <point x="300" y="667" type="line"/>
      <point x="300" y="39" type="line"/>
      <point x="138" y="39" type="line"/>
    </contour>
  </outline>
</glyph>
<glyph name="eight" format="2">
  <advance width="600"/>
  <unicode hex="0038"/>
  <outline>
    <contour>
      <point x="300" y="-8" type="curve" smooth="yes"/>
      <point x="453" y="-8"/>
      <point x="542" y="62"/>
      <point x="542" y="184" type="curve" smooth="yes"/>
      <point x="542" y="281"/>
      <point x="478" y="350"/>
      <point x="382" y="363" type="curve"/>
      <point x="382" y="354" type="line"/>
      <point x="471" y="373"/>
      <point x="526" y="443"/>
      <point x="526" y="527" type="curve" smooth="yes"/>
      <point x="526" y="644"/>
      <point x="437" y="713"/>
      <point x="300" y="713" type="curve" smooth="yes"/>
      <point x="163" y="713"/>
      <point x="74" y="644"/>
      <point x="74" y="527" type="curve" smooth="yes"/>
      <point x="74" y="442"/>
      <point x="129" y="373"/>
      <point x="218" y="354" type="curve"/>
      <point x="218" y="363" type="line"/>
      <point x="122" y="350"/>
      <point x="58" y="281"/>
      <point x="58" y="184" type="curve" smooth="yes"/>
      <point x="58" y="62"/>
      <point x="147" y="-8"/>
    </contour>
    <contour>
      <point x="300" y="32" type="curve" smooth="yes"/>
      <point x="170" y="32"/>
      <point x="102" y="82"/>
      <point x="102" y="185" type="curve" smooth="yes"/>
      <point x="102" y="288"/>
      <point x="170" y="337"/>
      <point x="300" y="337" type="curve" smooth="yes"/>
      <point x="430" y="337"/>
      <point x="498" y="288"/>
      <point x="498" y="185" type="curve" smooth="yes"/>
      <point x="498" y="82"/>
      <point x="430" y="32"/>
    </contour>
    <contour>
      <point x="300" y="377" type="curve" smooth="yes"/>
      <point x="186" y="377"/>
      <point x="118" y="433"/>
      <point x="118" y="526" type="curve" smooth="yes"/>
      <point x="118" y="619"/>
      <point x="186" y="673"/>
      <point x="300" y="673" type="curve" smooth="yes"/>
      <point x="414" y="673"/>
      <point x="482" y="619"/>
      <point x="482" y="526" type="curve" smooth="yes"/>
      <point x="482" y="433"/>
      <point x="414" y="377"/>
    </contour>
  </outline>
</glyph>
<glyph name="colon" format="2">
  <advance width="211"/>
  <unicode hex="003A"/>
  <outline>
    <contour>
      <point x="71" y="364" type="line"/>
      <point x="140" y="364" type="line"/>
      <point x="140" y="434" type="line"/>
      <point x="71" y="434" type="line"/>
    </contour>
    <contour>
      <point x="71" y="0" type="line"/>
      <point x="140" y="0" type="line"/>
      <point x="140" y="70" type="line"/>
      <point x="71" y="70" type="line"/>
    </contour>
  </outline>
</glyph>
<glyph name="semicolon" format="2">
  <advance width="211"/>
  <unicode hex="003B"/>
  <outline>
    <contour>
      <point x="96" y="-98" type="line"/>
      <point x="130" y="-65"/>
      <point x="140" y="-27"/>
      <point x="140" y="15" type="curve" smooth="yes"/>
      <point x="140" y="70" type="line"/>
      <point x="71" y="70" type="line"/>
      <point x="71" y="0" type="line"/>
      <point x="118" y="0" type="line"/>
      <point x="103" y="6" type="line"/>
      <point x="103" y="-20"/>
      <point x="99" y="-46"/>
      <point x="70" y="-78" type="curve"/>
    </contour>
    <contour>
      <point x="71" y="364" type="line"/>
      <point x="140" y="364" type="line"/>
      <point x="140" y="434" type="line"/>
      <point x="71" y="434" type="line"/>
    </contour>
  </outline>
</glyph>
<glyph name="K" format="2">
  <advance width="590"/>
  <unicode hex="004B"/>
  <anchor x="302" y="0" name="bottom"/>
  <anchor x="301" y="705" name="top"/>
  <anchor x="27" y="705" name="topleft"/>
  <outline>
    <contour>
      <point x="96" y="0" type="line"/>
      <point x="138" y="0" type="line"/>
      <point x="138" y="338" type="line"/>
      <point x="140" y="338" type="line"/>
      <point x="532" y="0" type="line"/>
      <point x="594" y="0" type="line"/>
      <point x="160" y="374" type="line"/>
      <point x="158" y="342" type="line"/>
      <point x="568" y="705" type="line"/>
      <point x="509" y="705" type="line"/>
      <point x="140" y="377" type="line"/>
      <point x="138" y="377" type="line"/>
      <point x="138" y="705" type="line"/>
      <point x="96" y="705" type="line"/>
    </contour>
  </outline>
</glyph>
<glyph name="X" format="2">
  <advance width="631"/>
  <unicode hex="0058"/>
  <anchor x="316" y="0" name="bottom"/>
  <anchor x="316" y="705" name="top"/>
  <outline>
    <contour>
      <point x="24" y="0" type="line"/>
      <point x="75" y="0" type="line"/>
      <point x="326" y="342" type="line"/>
      <point x="305" y="342" type="line"/>
      <point x="556" y="0" type="line"/>
      <point x="607" y="0" type="line"/>
      <point x="336" y="367" type="line"/>
      <point x="336" y="357" type="line"/>
      <point x="592" y="705" type="line"/>
      <point x="542" y="705" type="line"/>
      <point x="311" y="387" type="line"/>
      <point x="323" y="387" type="line"/>
      <point x="89" y="705" type="line"/>
      <point x="39" y="705" type="line"/>
      <point x="295" y="357" type="line"/>
      <point x="295" y="367" type="line"/>
    </contour>
  </outline>
</glyph>
<glyph name="a" format="2">
  <advance width="514"/>
  <unicode hex="0061"/>
  <anchor x="262" y="0" name="bottom"/>
  <anchor x="431" y="0" name="ogonek"/>
  <anchor x="265" y="484" name="top"/>
  <outline>
    <contour>
      <point x="230" y="-8" type="curve" smooth="yes"/>
      <point x="314" y="-8"/>
      <point x="379" y="36"/>
      <point x="400" y="110" type="curve"/>
      <point x="390" y="110" type="line"/>
      <point x="390" y="0" type="line"/>
      <point x="431" y="0" type="line"/>
      <point x="431" y="275" type="line" smooth="yes"/>
      <point x="431" y="386"/>
      <point x="379" y="442"/>
      <point x="269" y="442" type="curve" smooth="yes"/>
      <point x="203" y="442"/>
      <point x="134" y="421"/>
      <point x="83" y="384" type="curve"/>
      <point x="103" y="349" type="line"/>
      <point x="160" y="388"/>
      <point x="209" y="403"/>
      <point x="271" y="403" type="curve" smooth="yes"/>
      <point x="353" y="403"/>
      <point x="389" y="361"/>
      <point x="389" y="276" type="curve" smooth="yes"/>
      <point x="389" y="183" type="line" smooth="yes"/>
      <point x="389" y="97"/>
      <point x="325" y="30"/>
      <point x="233" y="30" type="curve" smooth="yes"/>
      <point x="157" y="30"/>
      <point x="110" y="68"/>
      <point x="110" y="127" type="curve" smooth="yes"/>
      <point x="110" y="189"/>
      <point x="155" y="211"/>
      <point x="341" y="211" type="curve" smooth="yes"/>
      <point x="400" y="211" type="line"/>
      <point x="400" y="247" type="line"/>
      <point x="338" y="247" type="line" smooth="yes"/>
      <point x="124" y="247"/>
      <point x="64" y="214"/>
      <point x="64" y="123" type="curve" smooth="yes"/>
      <point x="64" y="50"/>
      <point x="135" y="-8"/>
    </contour>
  </outline>
</glyph>
<glyph name="d" format="2">
  <advance width="568"/>
  <unicode hex="0064"/>
  <anchor x="286" y="0" name="bottom"/>
  <anchor x="286" y="219" name="center"/>
  <anchor x="411" y="521" name="stroke"/>
  <anchor x="284" y="705" name="top"/>
  <anchor x="533" y="705" name="topright"/>
  <outline>
    <contour>
      <point x="268" y="-8" type="curve" smooth="yes"/>
      <point x="361" y="-8"/>
      <point x="429" y="40"/>
      <point x="450" y="111" type="curve"/>
      <point x="442" y="111" type="line"/>
      <point x="442" y="0" type="line"/>
      <point x="483" y="0" type="line"/>
      <point x="483" y="705" type="line"/>
      <point x="441" y="705" type="line"/>
      <point x="441" y="324" type="line"/>
      <point x="450" y="324" type="line"/>
      <point x="429" y="395"/>
      <point x="361" y="442"/>
      <point x="268" y="442" type="curve" smooth="yes"/>
      <point x="138" y="442"/>
      <point x="53" y="356"/>
      <point x="53" y="217" type="curve" smooth="yes"/>
      <point x="53" y="79"/>
      <point x="139" y="-8"/>
    </contour>
    <contour>
      <point x="269" y="31" type="curve" smooth="yes"/>
      <point x="163" y="31"/>
      <point x="96" y="101"/>
      <point x="96" y="217" type="curve" smooth="yes"/>
      <point x="96" y="334"/>
      <point x="163" y="403"/>
      <point x="269" y="403" type="curve" smooth="yes"/>
      <point x="376" y="403"/>
      <point x="442" y="334"/>
      <point x="442" y="217" type="curve" smooth="yes"/>
      <point x="442" y="101"/>
      <point x="376" y="31"/>
    </contour>
  </outline>
</glyph>
<glyph name="f" format="2">
  <advance width="306"/>
  <unicode hex="0066"/>
  <anchor x="126" y="0" name="bottom"/>
  <anchor x="126" y="595" name="top"/>
  <outline>
    <contour>
      <point x="105" y="0" type="line"/>
      <point x="147" y="0" type="line"/>
      <point x="147" y="398" type="line"/>
      <point x="293" y="398" type="line"/>
      <point x="293" y="434" type="line"/>
      <point x="138" y="434" type="line"/>
      <point x="147" y="422" type="line"/>
      <point x="147" y="512" type="line" smooth="yes"/>
      <point x="147" y="611"/>
      <point x="186" y="660"/>
      <point x="270" y="667" type="curve" smooth="yes"/>
      <point x="316" y="670" type="line"/>
      <point x="311" y="707" type="line"/>
      <point x="280" y="705" type="line" smooth="yes"/>
      <point x="162" y="698"/>
      <point x="105" y="636"/>
      <point x="105" y="512" type="curve" smooth="yes"/>
      <point x="105" y="423" type="line"/>
      <point x="115" y="434" type="line"/>
      <point x="8" y="434" type="line"/>
      <point x="8" y="398" type="line"/>
      <point x="105" y="398" type="line"/>
    </contour>
  </outline>
</glyph>
<glyph name="h" format="2">
  <advance width="553"/>
  <unicode hex="0068"/>
  <anchor x="277" y="0" name="bottom"/>
  <anchor x="277" y="220" name="center"/>
  <anchor x="204" y="317" name="dot"/>
  <anchor x="157" y="580" name="stroke"/>
  <anchor x="278" y="705" name="top"/>
  <anchor x="169" y="705" name="topright"/>
  <outline>
    <contour>
      <point x="85" y="0" type="line"/>
      <point x="127" y="0" type="line"/>
      <point x="127" y="234" type="line" smooth="yes"/>
      <point x="127" y="336"/>
      <point x="195" y="403"/>
      <point x="297" y="403" type="curve" smooth="yes"/>
      <point x="388" y="403"/>
      <point x="428" y="359"/>
      <point x="428" y="259" type="curve" smooth="yes"/>
      <point x="428" y="0" type="line"/>
      <point x="470" y="0" type="line"/>
      <point x="470" y="262" type="line" smooth="yes"/>
      <point x="470" y="383"/>
      <point x="412" y="442"/>
      <point x="297" y="442" type="curve" smooth="yes"/>
      <point x="211" y="442"/>
      <point x="142" y="399"/>
      <point x="116" y="322" type="curve"/>
      <point x="127" y="322" type="line"/>
      <point x="127" y="705" type="line"/>
      <point x="85" y="705" type="line"/>
    </contour>
  </outline>
</glyph>
<glyph name="i" format="2">
  <advance width="212"/>
  <unicode hex="0069"/>
  <anchor x="105" y="0" name="bottom"/>
  <anchor x="127" y="0" name="ogonek"/>
  <outline>
    <contour>
      <point x="74" y="569" type="line"/>
      <point x="138" y="569" type="line"/>
      <point x="138" y="632" type="line"/>
      <point x="74" y="632" type="line"/>
    </contour>
    <contour>
      <point x="85" y="0" type="line"/>
      <point x="127" y="0" type="line"/>
      <point x="127" y="434" type="line"/>
      <point x="85" y="434" type="line"/>
    </contour>
  </outline>
</glyph>
<glyph name="n" format="2">
  <advance width="553"/>
  <unicode hex="006E"/>
  <anchor x="277" y="0" name="bottom"/>
  <anchor x="277" y="484" name="top"/>
  <outline>
    <contour>
      <point x="85" y="0" type="line"/>
      <point x="127" y="0" type="line"/>
      <point x="127" y="234" type="line" smooth="yes"/>
      <point x="127" y="336"/>
      <point x="195" y="403"/>
      <point x="297" y="403" type="curve" smooth="yes"/>
      <point x="388" y="403"/>
      <point x="428" y="359"/>
      <point x="428" y="259" type="curve" smooth="yes"/>
      <point x="428" y="0" type="line"/>
      <point x="470" y="0" type="line"/>
      <point x="470" y="262" type="line" smooth="yes"/>
      <point x="470" y="384"/>
      <point x="412" y="442"/>
      <point x="297" y="442" type="curve" smooth="yes"/>
      <point x="211" y="442"/>
      <point x="142" y="399"/>
      <point x="116" y="322" type="curve"/>
      <point x="126" y="322" type="line"/>
      <point x="126" y="434" type="line"/>
      <point x="85" y="434" type="line"/>
    </contour>
  </outline>
</glyph>
<glyph name="p" format="2">
  <advance width="568"/>
  <unicode hex="0070"/>
  <anchor x="282" y="0" name="bottom"/>
  <anchor x="282" y="484" name="top"/>
  <outline>
    <contour>
      <point x="85" y="-180" type="line"/>
      <point x="127" y="-180" type="line"/>
      <point x="127" y="111" type="line"/>
      <point x="119" y="111" type="line"/>
      <point x="140" y="39"/>
      <point x="208" y="-8"/>
      <point x="300" y="-8" type="curve" smooth="yes"/>
      <point x="430" y="-8"/>
      <point x="515" y="79"/>
      <point x="515" y="217" type="curve" smooth="yes"/>
      <point x="515" y="356"/>
      <point x="430" y="442"/>
      <point x="300" y="442" type="curve" smooth="yes"/>
      <point x="208" y="442"/>
      <point x="140" y="395"/>
      <point x="119" y="323" type="curve"/>
      <point x="127" y="323" type="line"/>
      <point x="127" y="434" type="line"/>
      <point x="85" y="434" type="line"/>
    </contour>
    <contour>
      <point x="299" y="31" type="curve" smooth="yes"/>
      <point x="193" y="31"/>
      <point x="126" y="101"/>
      <point x="126" y="217" type="curve" smooth="yes"/>
      <point x="126" y="334"/>
      <point x="193" y="403"/>
      <point x="299" y="403" type="curve" smooth="yes"/>
      <point x="406" y="403"/>
      <point x="472" y="334"/>
      <point x="472" y="217" type="curve" smooth="yes"/>
      <point x="472" y="101"/>
      <point x="406" y="31"/>
    </contour>
  </outline>
</glyph>
<glyph name="q" format="2">
  <advance width="568"/>
  <unicode hex="0071"/>
  <anchor x="282" y="0" name="bottom"/>
  <anchor x="282" y="484" name="top"/>
  <outline>
    <contour>
      <point x="441" y="-180" type="line"/>
      <point x="483" y="-180" type="line"/>
      <point x="483" y="434" type="line"/>
      <point x="442" y="434" type="line"/>
      <point x="442" y="323" type="line"/>
      <point x="450" y="323" type="line"/>
      <point x="429" y="395"/>
      <point x="361" y="442"/>
      <point x="268" y="442" type="curve" smooth="yes"/>
      <point x="139" y="442"/>
      <point x="53" y="356"/>
      <point x="53" y="217" type="curve" smooth="yes"/>
      <point x="53" y="79"/>
      <point x="138" y="-8"/>
      <point x="268" y="-8" type="curve" smooth="yes"/>
      <point x="361" y="-8"/>
      <point x="429" y="39"/>
      <point x="450" y="111" type="curve"/>
      <point x="441" y="111" type="line"/>
    </contour>
    <contour>
      <point x="269" y="31" type="curve" smooth="yes"/>
      <point x="163" y="31"/>
      <point x="96" y="101"/>
      <point x="96" y="217" type="curve" smooth="yes"/>
      <point x="96" y="334"/>
      <point x="163" y="403"/>
      <point x="269" y="403" type="curve" smooth="yes"/>
      <point x="376" y="403"/>
      <point x="442" y="334"/>
      <point x="442" y="217" type="curve" smooth="yes"/>
      <point x="442" y="101"/>
      <point x="376" y="31"/>
    </contour>
  </outline>
</glyph>
<glyph name="r" format="2">
  <advance width="327"/>
  <unicode hex="0072"/>
  <anchor x="106" y="0" name="bottom"/>
  <anchor x="204" y="484" name="top"/>
  <outline>
    <contour>
      <point x="85" y="0" type="line"/>
      <point x="127" y="0" type="line"/>
      <point x="127" y="244" type="line" smooth="yes"/>
      <point x="127" y="341"/>
      <point x="185" y="394"/>
      <point x="284" y="404" type="curve" smooth="yes"/>
      <point x="318" y="408" type="line"/>
      <point x="313" y="446" type="line"/>
      <point x="292" y="444" type="line" smooth="yes"/>
      <point x="198" y="436"/>
      <point x="143" y="400"/>
      <point x="116" y="324" type="curve"/>
      <point x="126" y="324" type="line"/>
      <point x="126" y="434" type="line"/>
      <point x="85" y="434" type="line"/>
    </contour>
  </outline>
</glyph>
<glyph name="t" format="2">
  <advance width="320"/>
  <unicode hex="0074"/>
  <anchor x="203" y="0" name="bottom"/>
  <anchor x="151" y="243" name="center"/>
  <anchor x="124" y="600" name="top"/>
  <anchor x="225" y="705" name="topright"/>
  <outline>
    <contour>
      <point x="255" y="-8" type="curve" smooth="yes"/>
      <point x="282" y="-8"/>
      <point x="318" y="1"/>
      <point x="330" y="9" type="curve"/>
      <point x="320" y="44" type="line"/>
      <point x="305" y="38"/>
      <point x="282" y="31"/>
      <point x="258" y="31" type="curve" smooth="yes"/>
      <point x="177" y="31"/>
      <point x="145" y="78"/>
      <point x="145" y="165" type="curve" smooth="yes"/>
      <point x="145" y="398" type="line"/>
      <point x="304" y="398" type="line"/>
      <point x="304" y="434" type="line"/>
      <point x="145" y="434" type="line"/>
      <point x="145" y="600" type="line"/>
      <point x="103" y="600" type="line"/>
      <point x="103" y="434" type="line"/>
      <point x="6" y="434" type="line"/>
      <point x="6" y="398" type="line"/>
      <point x="103" y="398" type="line"/>
      <point x="103" y="156" type="line" smooth="yes"/>
      <point x="103" y="52"/>
      <point x="154" y="-8"/>
    </contour>
  </outline>
</glyph>
<glyph name="u" format="2">
  <advance width="545"/>
  <unicode hex="0075"/>
  <anchor x="273" y="0" name="bottom"/>
  <anchor x="460" y="0" name="ogonek"/>
  <anchor x="273" y="485" name="top"/>
  <anchor x="420" y="434" name="topright"/>
  <outline>
    <contour>
      <point x="255" y="-8" type="curve" smooth="yes"/>
      <point x="338" y="-8"/>
      <point x="406" y="37"/>
      <point x="430" y="114" type="curve"/>
      <point x="419" y="114" type="line"/>
      <point x="419" y="0" type="line"/>
      <point x="460" y="0" type="line"/>
      <point x="460" y="434" type="line"/>
      <point x="418" y="434" type="line"/>
      <point x="418" y="201" type="line" smooth="yes"/>
      <point x="418" y="99"/>
      <point x="352" y="31"/>
      <point x="256" y="31" type="curve" smooth="yes"/>
      <point x="167" y="31"/>
      <point x="125" y="76"/>
      <point x="125" y="176" type="curve" smooth="yes"/>
      <point x="125" y="434" type="line"/>
      <point x="83" y="434" type="line"/>
      <point x="83" y="173" type="line" smooth="yes"/>
      <point x="83" y="53"/>
      <point x="142" y="-8"/>
    </contour>
  </outline>
</glyph>
<glyph name="v" format="2">
  <advance width="504"/>
  <unicode hex="0076"/>
  <anchor x="252" y="0" name="bottom"/>
  <anchor x="252" y="484" name="top"/>
  <outline>
    <contour>
      <point x="229" y="0" type="line"/>
      <point x="275" y="0" type="line"/>
      <point x="481" y="434" type="line"/>
      <point x="434" y="434" type="line"/>
      <point x="242" y="20" type="line"/>
      <point x="262" y="20" type="line"/>
      <point x="71" y="434" type="line"/>
      <point x="23" y="434" type="line"/>
    </contour>
  </outline>
</glyph>
<glyph name="y" format="2">
  <advance width="504"/>
  <unicode hex="0079"/>
  <anchor x="371" y="0" name="bottom"/>
  <anchor x="252" y="484" name="top"/>
  <outline>
    <contour>
      <point x="143" y="-180" type="line"/>
      <point x="188" y="-180" type="line"/>
      <point x="482" y="434" type="line"/>
      <point x="435" y="434" type="line"/>
      <point x="242" y="20" type="line"/>
      <point x="262" y="20" type="line"/>
      <point x="71" y="434" type="line"/>
      <point x="23" y="434" type="line"/>
      <point x="234" y="-11" type="line"/>
      <point x="234" y="9" type="line"/>
    </contour>
  </outline>
</glyph>
<glyph name="z" format="2">
  <advance width="454"/>
  <unicode hex="007A"/>
  <anchor x="235" y="0" name="bottom"/>
  <anchor x="235" y="484" name="top"/>
  <outline>
    <contour>
      <point x="60" y="0" type="line"/>
      <point x="421" y="0" type="line"/>
      <point x="421" y="36" type="line"/>
      <point x="101" y="36" type="line"/>
      <point x="101" y="23" type="line"/>
      <point x="410" y="404" type="line"/>
      <point x="410" y="434" type="line"/>
      <point x="60" y="434" type="line"/>
      <point x="60" y="398" type="line"/>
      <point x="369" y="398" type="line"/>
      <point x="369" y="411" type="line"/>
      <point x="60" y="31" type="line"/>
    </contour>
  </outline>
</glyph>
<glyph name="cent" format="2">
  <advance width="600"/>
  <unicode hex="00A2"/>
  <outline>
    <contour>
      <point x="296" y="-115" type="line"/>
      <point x="336" y="-115" type="line"/>
      <point x="336" y="7" type="line"/>
      <point x="325" y="-7" type="line"/>
      <point x="383" y="-7"/>
      <point x="449" y="16"/>
      <point x="487" y="53" type="curve"/>
      <point x="467" y="86" type="line"/>
      <point x="425" y="48"/>
      <point x="374" y="32"/>
      <point x="321" y="32" type="curve" smooth="yes"/>
      <point x="208" y="32"/>
      <point x="142" y="103"/>
      <point x="142" y="218" type="curve" smooth="yes"/>
      <point x="142" y="332"/>
      <point x="209" y="402"/>
      <point x="321" y="402" type="curve" smooth="yes"/>
      <point x="374" y="402"/>
      <point x="425" y="386"/>
      <point x="467" y="348" type="curve"/>
      <point x="487" y="381" type="line"/>
      <point x="449" y="419"/>
      <point x="389" y="440"/>
      <point x="327" y="441" type="curve"/>
      <point x="336" y="425" type="line"/>
      <point x="336" y="554" type="line"/>
      <point x="296" y="554" type="line"/>
      <point x="296" y="424" type="line"/>
      <point x="305" y="441" type="line"/>
      <point x="181" y="434"/>
      <point x="99" y="348"/>
      <point x="99" y="219" type="curve" smooth="yes"/>
      <point x="99" y="85"/>
      <point x="184" y="-3"/>
      <point x="306" y="-7" type="curve"/>
      <point x="296" y="7" type="line"/>
    </contour>
  </outline>
</glyph>
<glyph name="periodcentered" format="2">
  <advance width="211"/>
  <unicode hex="00B7"/>
  <outline>
    <contour>
      <point x="71" y="205" type="line"/>
      <point x="140" y="205" type="line"/>
      <point x="140" y="275" type="line"/>
      <point x="71" y="275" type="line"/>
    </contour>
  </outline>
</glyph>
<glyph name="questiondown" format="2">
  <advance width="429"/>
  <unicode hex="00BF"/>
  <outline>
    <contour>
      <point x="210" y="-188" type="curve" smooth="yes"/>
      <point x="297" y="-188"/>
      <point x="379" y="-156"/>
      <point x="427" y="-111" type="curve"/>
      <point x="407" y="-75" type="line"/>
      <point x="351" y="-122"/>
      <point x="288" y="-147"/>
      <point x="210" y="-147" type="curve" smooth="yes"/>
      <point x="120" y="-147"/>
      <point x="76" y="-111"/>
      <point x="76" y="-53" type="curve" smooth="yes"/>
      <point x="76" y="-12"/>
      <point x="94" y="26"/>
      <point x="154" y="78" type="curve" smooth="yes"/>
      <point x="229" y="142"/>
      <point x="248" y="195"/>
      <point x="248" y="254" type="curve" smooth="yes"/>
      <point x="248" y="272" type="line"/>
      <point x="218" y="272" type="line"/>
      <point x="216" y="253" type="line" smooth="yes"/>
      <point x="210" y="200"/>
      <point x="190" y="162"/>
      <point x="122" y="102" type="curve" smooth="yes"/>
      <point x="52" y="39"/>
      <point x="33" y="-5"/>
      <point x="33" y="-54" type="curve" smooth="yes"/>
      <point x="33" y="-136"/>
      <point x="98" y="-188"/>
    </contour>
    <contour>
      <point x="199" y="364" type="line"/>
      <point x="267" y="364" type="line"/>
      <point x="267" y="434" type="line"/>
      <point x="199" y="434" type="line"/>
    </contour>
  </outline>
</glyph>
<glyph name="ae" format="2">
  <advance width="857"/>
  <unicode hex="00E6"/>
  <anchor x="416" y="0" name="bottom"/>
  <anchor x="416" y="484" name="top"/>
  <outline>
    <contour>
      <point x="232" y="-8" type="curve" smooth="yes"/>
      <point x="333" y="-8"/>
      <point x="404" y="50"/>
      <point x="419" y="142" type="curve"/>
      <point x="404" y="142" type="line"/>
      <point x="430" y="47"/>
      <point x="509" y="-8"/>
      <point x="625" y="-8" type="curve" smooth="yes"/>
      <point x="688" y="-8"/>
      <point x="757" y="15"/>
      <point x="801" y="55" type="curve"/>
      <point x="780" y="88" type="line"/>
      <point x="729" y="47"/>
      <point x="679" y="31"/>
      <point x="622" y="31" type="curve" smooth="yes"/>
      <point x="502" y="31"/>
      <point x="437" y="100"/>
      <point x="437" y="217" type="curve" smooth="yes"/>
      <point x="437" y="223" type="line" smooth="yes"/>
      <point x="437" y="331"/>
      <point x="502" y="405"/>
      <point x="613" y="405" type="curve" smooth="yes"/>
      <point x="716" y="405"/>
      <point x="770" y="341"/>
      <point x="770" y="237" type="curve"/>
      <point x="786" y="247" type="line"/>
      <point x="428" y="247" type="line"/>
      <point x="428" y="211" type="line"/>
      <point x="809" y="211" type="line"/>
      <point x="809" y="231" type="line" smooth="yes"/>
      <point x="809" y="364"/>
      <point x="736" y="442"/>
      <point x="615" y="442" type="curve" smooth="yes"/>
      <point x="522" y="442"/>
      <point x="452" y="399"/>
      <point x="417" y="321" type="curve"/>
      <point x="433" y="321" type="line"/>
      <point x="418" y="398"/>
      <point x="371" y="442"/>
      <point x="270" y="442" type="curve" smooth="yes"/>
      <point x="203" y="442"/>
      <point x="134" y="421"/>
      <point x="83" y="384" type="curve"/>
      <point x="103" y="350" type="line"/>
      <point x="160" y="388"/>
      <point x="210" y="403"/>
      <point x="272" y="403" type="curve" smooth="yes"/>
      <point x="357" y="403"/>
      <point x="394" y="361"/>
      <point x="394" y="275" type="curve" smooth="yes"/>
      <point x="394" y="187" type="line" smooth="yes"/>
      <point x="394" y="98"/>
      <point x="331" y="30"/>
      <point x="235" y="30" type="curve" smooth="yes"/>
      <point x="157" y="30"/>
      <point x="110" y="68"/>
      <point x="110" y="127" type="curve" smooth="yes"/>
      <point x="110" y="190"/>
      <point x="155" y="211"/>
      <point x="341" y="211" type="curve" smooth="yes"/>
      <point x="405" y="211" type="line"/>
      <point x="405" y="247" type="line"/>
      <point x="338" y="247" type="line" smooth="yes"/>
      <point x="126" y="247"/>
      <point x="64" y="215"/>
      <point x="64" y="123" type="curve" smooth="yes"/>
      <point x="64" y="50"/>
      <point x="135" y="-8"/>
    </contour>
  </outline>
</glyph>
<glyph name="kgreenlandic" format="2">
  <advance width="468"/>
  <unicode hex="0138"/>
  <anchor x="234" y="0" name="bottom"/>
  <anchor x="234" y="484" name="top"/>
  <outline>
    <contour>
      <point x="85" y="0" type="line"/>
      <point x="127" y="0" type="line"/>
      <point x="127" y="213" type="line"/>
      <point x="129" y="213" type="line"/>
      <point x="405" y="0" type="line"/>
      <point x="466" y="0" type="line"/>
      <point x="159" y="240" type="line"/>
      <point x="159" y="208" type="line"/>
      <point x="438" y="434" type="line"/>
      <point x="378" y="434" type="line"/>
      <point x="129" y="233" type="line"/>
      <point x="127" y="233" type="line"/>
      <point x="127" y="434" type="line"/>
      <point x="85" y="434" type="line"/>
    </contour>
  </outline>
</glyph>
<glyph name="eng" format="2">
  <advance width="553"/>
  <unicode hex="014B"/>
  <outline>
    <contour>
      <point x="285" y="-193" type="line"/>
      <point x="328" y="-190" type="line" smooth="yes"/>
      <point x="418" y="-184"/>
      <point x="470" y="-124"/>
      <point x="470" y="-21" type="curve" smooth="yes"/>
      <point x="470" y="262" type="line" smooth="yes"/>
      <point x="470" y="384"/>
      <point x="412" y="442"/>
      <point x="297" y="442" type="curve" smooth="yes"/>
      <point x="211" y="442"/>
      <point x="142" y="399"/>
      <point x="116" y="322" type="curve"/>
      <point x="126" y="322" type="line"/>
      <point x="126" y="434" type="line"/>
      <point x="85" y="434" type="line"/>
      <point x="85" y="0" type="line"/>
      <point x="127" y="0" type="line"/>
      <point x="127" y="234" type="line" smooth="yes"/>
      <point x="127" y="336"/>
      <point x="195" y="403"/>
      <point x="297" y="403" type="curve" smooth="yes"/>
      <point x="388" y="403"/>
      <point x="428" y="359"/>
      <point x="428" y="259" type="curve" smooth="yes"/>
      <point x="428" y="-22" type="line" smooth="yes"/>
      <point x="428" y="-102"/>
      <point x="391" y="-147"/>
      <point x="323" y="-152" type="curve" smooth="yes"/>
      <point x="282" y="-155" type="line"/>
    </contour>
  </outline>
</glyph>
<glyph name="bhook" format="2">
  <advance width="568"/>
  <unicode hex="0253"/>
  <outline>
    <contour>
      <point x="300" y="-8" type="curve" smooth="yes"/>
      <point x="430" y="-8"/>
      <point x="515" y="79"/>
      <point x="515" y="217" type="curve" smooth="yes"/>
      <point x="515" y="356"/>
      <point x="430" y="442"/>
      <point x="300" y="442" type="curve" smooth="yes"/>
      <point x="208" y="442"/>
      <point x="140" y="395"/>
      <point x="119" y="324" type="curve"/>
      <point x="127" y="324" type="line"/>
      <point x="127" y="566" type="line" smooth="yes"/>
      <point x="127" y="636"/>
      <point x="161" y="675"/>
      <point x="229" y="675" type="curve" smooth="yes"/>
      <point x="242" y="675"/>
      <point x="250" y="674"/>
      <point x="268" y="669" type="curve"/>
      <point x="274" y="706" type="line"/>
      <point x="259" y="711"/>
      <point x="245" y="713"/>
      <point x="227" y="713" type="curve" smooth="yes"/>
      <point x="135" y="713"/>
      <point x="85" y="661"/>
      <point x="85" y="564" type="curve" smooth="yes"/>
      <point x="85" y="0" type="line"/>
      <point x="127" y="0" type="line"/>
      <point x="127" y="111" type="line"/>
      <point x="119" y="111" type="line"/>
      <point x="140" y="40"/>
      <point x="208" y="-8"/>
    </contour>
    <contour>
      <point x="299" y="31" type="curve" smooth="yes"/>
      <point x="193" y="31"/>
      <point x="126" y="101"/>
      <point x="126" y="217" type="curve" smooth="yes"/>
      <point x="126" y="334"/>
      <point x="193" y="403"/>
      <point x="299" y="403" type="curve" smooth="yes"/>
      <point x="406" y="403"/>
      <point x="472" y="334"/>
      <point x="472" y="217" type="curve" smooth="yes"/>
      <point x="472" y="101"/>
      <point x="406" y="31"/>
    </contour>
  </outline>
</glyph>
<glyph name="dhook" format="2">
  <advance width="568"/>
  <unicode hex="0257"/>
  <outline>
    <contour>
      <point x="268" y="-8" type="curve" smooth="yes"/>
      <point x="361" y="-8"/>
      <point x="429" y="40"/>
      <point x="450" y="111" type="curve"/>
      <point x="442" y="111" type="line"/>
      <point x="442" y="0" type="line"/>
      <point x="483" y="0" type="line"/>
      <point x="483" y="566" type="line" smooth="yes"/>
      <point x="483" y="636"/>
      <point x="517" y="675"/>
      <point x="585" y="675" type="curve" smooth="yes"/>
      <point x="598" y="675"/>
      <point x="606" y="674"/>
      <point x="624" y="669" type="curve"/>
      <point x="630" y="706" type="line"/>
      <point x="615" y="711"/>
      <point x="601" y="713"/>
      <point x="583" y="713" type="curve" smooth="yes"/>
      <point x="491" y="713"/>
      <point x="441" y="661"/>
      <point x="441" y="564" type="curve" smooth="yes"/>
      <point x="441" y="324" type="line"/>
      <point x="450" y="324" type="line"/>
      <point x="429" y="395"/>
      <point x="361" y="442"/>
      <point x="268" y="442" type="curve" smooth="yes"/>
      <point x="138" y="442"/>
      <point x="53" y="356"/>
      <point x="53" y="217" type="curve" smooth="yes"/>
      <point x="53" y="79"/>
      <point x="139" y="-8"/>
    </contour>
    <contour>
      <point x="269" y="31" type="curve" smooth="yes"/>
      <point x="163" y="31"/>
      <point x="96" y="101"/>
      <point x="96" y="217" type="curve" smooth="yes"/>
      <point x="96" y="334"/>
      <point x="163" y="403"/>
      <point x="269" y="403" type="curve" smooth="yes"/>
      <point x="376" y="403"/>
      <point x="442" y="334"/>
      <point x="442" y="217" type="curve" smooth="yes"/>
      <point x="442" y="101"/>
      <point x="376" y="31"/>
    </contour>
  </outline>
</glyph>
<glyph name="commaturnedmod" format="2">
  <advance width="500"/>
  <unicode hex="02BB"/>
  <anchor x="250" y="484" name="_top"/>
  <anchor x="250" y="685" name="top"/>
  <outline>
    <contour>
      <point x="215" y="520" type="line"/>
      <point x="284" y="520" type="line"/>
      <point x="284" y="590" type="line"/>
      <point x="233" y="590" type="line"/>
      <point x="252" y="584" type="line"/>
      <point x="252" y="618"/>
      <point x="256" y="646"/>
      <point x="287" y="682" type="curve"/>
      <point x="261" y="703" type="line"/>
      <point x="225" y="667"/>
      <point x="215" y="624"/>
      <point x="215" y="578" type="curve" smooth="yes"/>
    </contour>
  </outline>
</glyph>
<glyph name="apostrophemod" format="2">
  <advance width="300"/>
  <unicode hex="02BC"/>
  <outline>
    <contour>
      <point x="141" y="525" type="line"/>
      <point x="177" y="561"/>
      <point x="187" y="604"/>
      <point x="187" y="651" type="curve" smooth="yes"/>
      <point x="187" y="708" type="line"/>
      <point x="118" y="708" type="line"/>
      <point x="118" y="638" type="line"/>
      <point x="169" y="638" type="line"/>
      <point x="150" y="644" type="line"/>
      <point x="150" y="611"/>
      <point x="146" y="582"/>
      <point x="115" y="547" type="curve"/>
    </contour>
  </outline>
</glyph>
<glyph name="ringhalfright" format="2">
  <advance width="500"/>
  <unicode hex="02BE"/>
  <anchor x="250" y="484" name="_top"/>
  <anchor x="250" y="685" name="top"/>
  <outline>
    <contour>
      <point x="250" y="506" type="line"/>
      <point x="306" y="506"/>
      <point x="347" y="547"/>
      <point x="347" y="600" type="curve" smooth="yes"/>
      <point x="347" y="653"/>
      <point x="306" y="695"/>
      <point x="250" y="695" type="curve"/>
      <point x="250" y="659" type="line"/>
      <point x="284" y="659"/>
      <point x="307" y="633"/>
      <point x="307" y="600" type="curve" smooth="yes"/>
      <point x="307" y="568"/>
      <point x="284" y="541"/>
      <point x="250" y="541" type="curve"/>
    </contour>
  </outline>
</glyph>
<glyph name="verticallinelowmod" format="2">
  <advance width="500"/>
  <unicode hex="02CC"/>
  <outline>
    <contour>
      <point x="229" y="-270" type="line"/>
      <point x="271" y="-270" type="line"/>
      <point x="271" y="-72" type="line"/>
      <point x="229" y="-72" type="line"/>
    </contour>
  </outline>
</glyph>
<glyph name="dieresiscomb" format="2">
  <unicode hex="0308"/>
  <anchor x="0" y="484" name="_top"/>
  <anchor x="0" y="685" name="top"/>
  <outline>
    <contour>
      <point x="50" y="570" type="line"/>
      <point x="111" y="570" type="line"/>
      <point x="111" y="630" type="line"/>
      <point x="50" y="630" type="line"/>
    </contour>
    <contour>
      <point x="-111" y="570" type="line"/>
      <point x="-50" y="570" type="line"/>
      <point x="-50" y="630" type="line"/>
      <point x="-111" y="630" type="line"/>
    </contour>
  </outline>
</glyph>
<glyph name="ringcomb" format="2">
  <unicode hex="030A"/>
  <anchor x="0" y="484" name="_top"/>
  <anchor x="0" y="685" name="top"/>
  <outline>
    <contour>
      <point x="0" y="497" type="curve" smooth="yes"/>
      <point x="63" y="497"/>
      <point x="112" y="546"/>
      <point x="112" y="607" type="curve" smooth="yes"/>
      <point x="112" y="668"/>
      <point x="63" y="717"/>
      <point x="0" y="717" type="curve" smooth="yes"/>
      <point x="-63" y="717"/>
      <point x="-112" y="668"/>
      <point x="-112" y="607" type="curve" smooth="yes"/>
      <point x="-112" y="546"/>
      <point x="-63" y="497"/>
    </contour>
    <contour>
      <point x="0" y="529" type="curve" smooth="yes"/>
      <point x="-46" y="529"/>
      <point x="-78" y="563"/>
      <point x="-78" y="607" type="curve" smooth="yes"/>
      <point x="-78" y="651"/>
      <point x="-46" y="685"/>
      <point x="0" y="685" type="curve" smooth="yes"/>
      <point x="46" y="685"/>
      <point x="78" y="651"/>
      <point x="78" y="607" type="curve" smooth="yes"/>
      <point x="78" y="563"/>
      <point x="46" y="529"/>
    </contour>
  </outline>
</glyph>
<glyph name="hungarumlautcomb" format="2">
  <unicode hex="030B"/>
  <anchor x="0" y="484" name="_top"/>
  <anchor x="0" y="685" name="top"/>
  <outline>
    <contour>
      <point x="41" y="499" type="line"/>
      <point x="68" y="499" type="line"/>
      <point x="147" y="720" type="line"/>
      <point x="99" y="720" type="line"/>
    </contour>
    <contour>
      <point x="-68" y="499" type="line"/>
      <point x="-41" y="499" type="line"/>
      <point x="38" y="720" type="line"/>
      <point x="-10" y="720" type="line"/>
    </contour>
  </outline>
</glyph>
<glyph name="commaturnedabovecomb" format="2">
  <unicode hex="0312"/>
  <anchor x="0" y="484" name="_top"/>
  <anchor x="0" y="685" name="top"/>
  <outline>
    <contour>
      <point x="-35" y="520" type="line"/>
      <point x="35" y="520" type="line"/>
      <point x="35" y="588" type="line"/>
      <point x="-16" y="588" type="line"/>
      <point x="1" y="581" type="line"/>
      <point x="1" y="618"/>
      <point x="7" y="647"/>
      <point x="39" y="684" type="curve"/>
      <point x="13" y="706" type="line"/>
      <point x="-22" y="670"/>
      <point x="-35" y="625"/>
      <point x="-35" y="577" type="curve" smooth="yes"/>
    </contour>
  </outline>
</glyph>
<glyph name="horncomb" format="2">
  <unicode hex="031B"/>
  <anchor x="-1" y="434" name="_topright"/>
  <outline>
    <contour>
      <point x="14" y="396" type="line"/>
      <point x="108" y="400"/>
      <point x="159" y="452"/>
      <point x="159" y="546" type="curve" smooth="yes"/>
      <point x="159" y="566" type="line"/>
      <point x="119" y="566" type="line"/>
      <point x="119" y="554" type="line" smooth="yes"/>
      <point x="119" y="477"/>
      <point x="96" y="435"/>
      <point x="-1" y="434" type="curve"/>
      <point x="-1" y="409" type="line"/>
    </contour>
  </outline>
</glyph>
<glyph name="slashshortcomb" format="2">
  <unicode hex="0337"/>
  <anchor x="-64" y="320" name="_center"/>
  <outline>
    <contour>
      <point x="-171" y="247" type="line"/>
      <point x="60" y="359" type="line"/>
      <point x="43" y="393" type="line"/>
      <point x="-188" y="281" type="line"/>
    </contour>
  </outline>
</glyph>
<glyph name="slashlongcomb" format="2">
  <unicode hex="0338"/>
  <anchor x="0" y="219" name="_center"/>
  <outline>
    <contour>
      <point x="-144" y="-36" type="line"/>
      <point x="172" y="453" type="line"/>
      <point x="144" y="473" type="line"/>
      <point x="-172" y="-16" type="line"/>
    </contour>
  </outline>
</glyph>
<glyph name="Dzhe-cy" format="2">
  <advance width="746"/>
  <unicode hex="040F"/>
  <outline>
    <contour>
      <point x="353" y="-150" type="line"/>
      <point x="393" y="-150" type="line"/>
      <point x="393" y="0" type="line"/>
      <point x="650" y="0" type="line"/>
      <point x="650" y="705" type="line"/>
      <point x="608" y="705" type="line"/>
      <point x="608" y="39" type="line"/>
      <point x="138" y="39" type="line"/>
      <point x="138" y="705" type="line"/>
      <point x="96" y="705" type="line"/>
      <point x="96" y="0" type="line"/>
      <point x="353" y="0" type="line"/>
    </contour>
  </outline>
</glyph>
<glyph name="ve-cy" format="2">
  <advance width="528"/>
  <unicode hex="0432"/>
  <outline>
    <contour>
      <point x="88" y="0" type="line"/>
      <point x="319" y="0" type="line" smooth="yes"/>
      <point x="418" y="0"/>
      <point x="475" y="46"/>
      <point x="475" y="120" type="curve" smooth="yes"/>
      <point x="475" y="183"/>
      <point x="425" y="227"/>
      <point x="355" y="227" type="curve"/>
      <point x="355" y="216" type="line"/>
      <point x="417" y="222"/>
      <point x="460" y="263"/>
      <point x="460" y="320" type="curve" smooth="yes"/>
      <point x="460" y="396"/>
      <point x="408" y="434"/>
      <point x="311" y="434" type="curve" smooth="yes"/>
      <point x="88" y="434" type="line"/>
    </contour>
    <contour>
      <point x="130" y="36" type="line"/>
      <point x="130" y="203" type="line"/>
      <point x="324" y="203" type="line" smooth="yes"/>
      <point x="396" y="203"/>
      <point x="433" y="174"/>
      <point x="433" y="119" type="curve" smooth="yes"/>
      <point x="433" y="66"/>
      <point x="396" y="36"/>
      <point x="324" y="36" type="curve" smooth="yes"/>
    </contour>
    <contour>
      <point x="130" y="239" type="line"/>
      <point x="130" y="399" type="line"/>
      <point x="316" y="399" type="line" smooth="yes"/>
      <point x="383" y="399"/>
      <point x="418" y="369"/>
      <point x="418" y="319" type="curve" smooth="yes"/>
      <point x="418" y="269"/>
      <point x="383" y="239"/>
      <point x="316" y="239" type="curve" smooth="yes"/>
    </contour>
  </outline>
</glyph>
<glyph name="ge-cy" format="2">
  <advance width="415"/>
  <unicode hex="0433"/>
  <anchor x="88" y="0" name="bottomright"/>
  <anchor x="135" y="218" name="center"/>
  <anchor x="232" y="484" name="top"/>
  <outline>
    <contour>
      <point x="88" y="0" type="line"/>
      <point x="130" y="0" type="line"/>
      <point x="130" y="397" type="line"/>
      <point x="403" y="397" type="line"/>
      <point x="403" y="434" type="line"/>
      <point x="88" y="434" type="line"/>
    </contour>
  </outline>
</glyph>
<glyph name="ii-cy" format="2">
  <advance width="566"/>
  <unicode hex="0438"/>
  <anchor x="439" y="0" name="bottomright"/>
  <anchor x="283" y="484" name="top"/>
  <outline>
    <contour>
      <point x="88" y="0" type="line"/>
      <point x="126" y="0" type="line"/>
      <point x="464" y="404" type="line"/>
      <point x="439" y="404" type="line"/>
      <point x="439" y="0" type="line"/>
      <point x="478" y="0" type="line"/>
      <point x="478" y="434" type="line"/>
      <point x="441" y="434" type="line"/>
      <point x="103" y="30" type="line"/>
      <point x="127" y="30" type="line"/>
      <point x="127" y="434" type="line"/>
      <point x="88" y="434" type="line"/>
    </contour>
  </outline>
</glyph>
<glyph name="ka-cy" format="2">
  <advance width="497"/>
  <unicode hex="043A"/>
  <anchor x="444" y="0" name="bottomright"/>
  <anchor x="240" y="218" name="center"/>
  <anchor x="275" y="484" name="top"/>
  <outline>
    <contour>
      <point x="88" y="0" type="line"/>
      <point x="130" y="0" type="line"/>
      <point x="130" y="207" type="line"/>
      <point x="217" y="207" type="line" smooth="yes"/>
      <point x="283" y="207"/>
      <point x="308" y="192"/>
      <point x="349" y="134" type="curve" smooth="yes"/>
      <point x="443" y="0" type="line"/>
      <point x="490" y="0" type="line"/>
      <point x="391" y="142" type="line" smooth="yes"/>
      <point x="339" y="216"/>
      <point x="313" y="236"/>
      <point x="256" y="242" type="curve"/>
      <point x="275" y="229" type="line"/>
      <point x="462" y="434" type="line"/>
      <point x="412" y="434" type="line"/>
      <point x="237" y="243" type="line"/>
      <point x="130" y="243" type="line"/>
      <point x="130" y="434" type="line"/>
      <point x="88" y="434" type="line"/>
    </contour>
  </outline>
</glyph>
<glyph name="tse-cy" format="2">
  <advance width="575"/>
  <unicode hex="0446"/>
  <outline>
    <contour>
      <point x="503" y="-130" type="line"/>
      <point x="541" y="-130" type="line"/>
      <point x="541" y="36" type="line"/>
      <point x="467" y="36" type="line"/>
      <point x="467" y="434" type="line"/>
      <point x="425" y="434" type="line"/>
      <point x="425" y="36" type="line"/>
      <point x="130" y="36" type="line"/>
      <point x="130" y="434" type="line"/>
      <point x="88" y="434" type="line"/>
      <point x="88" y="0" type="line"/>
      <point x="503" y="0" type="line"/>
    </contour>
  </outline>
</glyph>
<glyph name="che-cy" format="2">
  <advance width="532"/>
  <unicode hex="0447"/>
  <anchor x="402" y="0" name="bottomright"/>
  <anchor x="256" y="180" name="center"/>
  <anchor x="256" y="484" name="top"/>
  <outline>
    <contour>
      <point x="402" y="0" type="line"/>
      <point x="444" y="0" type="line"/>
      <point x="444" y="434" type="line"/>
      <point x="402" y="434" type="line"/>
      <point x="402" y="231" type="line"/>
      <point x="359" y="205"/>
      <point x="318" y="193"/>
      <point x="259" y="193" type="curve" smooth="yes"/>
      <point x="155" y="193"/>
      <point x="109" y="240"/>
      <point x="109" y="341" type="curve" smooth="yes"/>
      <point x="109" y="434" type="line"/>
      <point x="67" y="434" type="line"/>
      <point x="67" y="340" type="line" smooth="yes"/>
      <point x="67" y="216"/>
      <point x="127" y="154"/>
      <point x="260" y="154" type="curve" smooth="yes"/>
      <point x="316" y="154"/>
      <point x="363" y="168"/>
      <point x="402" y="190" type="curve"/>
    </contour>
  </outline>
</glyph>
<glyph name="yeru-cy" format="2">
  <advance width="689"/>
  <unicode hex="044B"/>
  <anchor x="345" y="484" name="top"/>
  <outline>
    <contour>
      <point x="88" y="0" type="line"/>
      <point x="303" y="0" type="line" smooth="yes"/>
      <point x="415" y="0"/>
      <point x="475" y="48"/>
      <point x="475" y="136" type="curve" smooth="yes"/>
      <point x="475" y="223"/>
      <point x="415" y="271"/>
      <point x="303" y="271" type="curve" smooth="yes"/>
      <point x="130" y="271" type="line"/>
      <point x="130" y="434" type="line"/>
      <point x="88" y="434" type="line"/>
    </contour>
    <contour>
      <point x="130" y="36" type="line"/>
      <point x="130" y="236" type="line"/>
      <point x="305" y="236" type="line" smooth="yes"/>
      <point x="385" y="236"/>
      <point x="432" y="204"/>
      <point x="432" y="136" type="curve" smooth="yes"/>
      <point x="432" y="67"/>
      <point x="385" y="36"/>
      <point x="305" y="36" type="curve" smooth="yes"/>
    </contour>
    <contour>
      <point x="559" y="0" type="line"/>
      <point x="601" y="0" type="line"/>
      <point x="601" y="434" type="line"/>
      <point x="559" y="434" type="line"/>
    </contour>
  </outline>
</glyph>
<glyph name="ereversed-cy" format="2">
  <advance width="471"/>
  <unicode hex="044D"/>
  <anchor x="207" y="484" name="top"/>
  <outline>
    <contour>
      <point x="194" y="-8" type="curve" smooth="yes"/>
      <point x="331" y="-8"/>
      <point x="415" y="82"/>
      <point x="415" y="218" type="curve" smooth="yes"/>
      <point x="415" y="356"/>
      <point x="335" y="442"/>
      <point x="195" y="442" type="curve" smooth="yes"/>
      <point x="133" y="442"/>
      <point x="67" y="419"/>
      <point x="28" y="382" type="curve"/>
      <point x="49" y="347" type="line"/>
      <point x="89" y="387"/>
      <point x="145" y="403"/>
      <point x="195" y="403" type="curve" smooth="yes"/>
      <point x="314" y="403"/>
      <point x="368" y="330"/>
      <point x="372" y="232" type="curve"/>
      <point x="380" y="241" type="line"/>
      <point x="112" y="241" type="line"/>
      <point x="112" y="205" type="line"/>
      <point x="380" y="205" type="line"/>
      <point x="372" y="213" type="line"/>
      <point x="370" y="101"/>
      <point x="307" y="31"/>
      <point x="195" y="31" type="curve" smooth="yes"/>
      <point x="144" y="31"/>
      <point x="89" y="48"/>
      <point x="49" y="88" type="curve"/>
      <point x="28" y="53" type="line"/>
      <point x="62" y="15"/>
      <point x="130" y="-8"/>
    </contour>
  </outline>
</glyph>
<glyph name="iu-cy" format="2">
  <advance width="727"/>
  <unicode hex="044E"/>
  <outline>
    <contour>
      <point x="455" y="-8" type="curve" smooth="yes"/>
      <point x="586" y="-8"/>
      <point x="671" y="79"/>
      <point x="671" y="217" type="curve" smooth="yes"/>
      <point x="671" y="355"/>
      <point x="586" y="442"/>
      <point x="455" y="442" type="curve" smooth="yes"/>
      <point x="333" y="442"/>
      <point x="251" y="366"/>
      <point x="240" y="243" type="curve"/>
      <point x="129" y="243" type="line"/>
      <point x="129" y="434" type="line"/>
      <point x="88" y="434" type="line"/>
      <point x="88" y="0" type="line"/>
      <point x="129" y="0" type="line"/>
      <point x="129" y="207" type="line"/>
      <point x="239" y="207" type="line"/>
      <point x="244" y="75"/>
      <point x="328" y="-8"/>
    </contour>
    <contour>
      <point x="455" y="31" type="curve" smooth="yes"/>
      <point x="349" y="31"/>
      <point x="282" y="101"/>
      <point x="282" y="217" type="curve" smooth="yes"/>
      <point x="282" y="334"/>
      <point x="349" y="403"/>
      <point x="455" y="403" type="curve" smooth="yes"/>
      <point x="562" y="403"/>
      <point x="628" y="334"/>
      <point x="628" y="217" type="curve" smooth="yes"/>
      <point x="628" y="101"/>
      <point x="562" y="31"/>
    </contour>
  </outline>
</glyph>
<glyph name="dje-cy" format="2">
  <advance width="544.5"/>
  <unicode hex="0452"/>
  <outline>
    <contour>
      <point x="299" y="-185" type="line"/>
      <point x="434" y="-157"/>
      <point x="473" y="-80"/>
      <point x="473" y="58" type="curve" smooth="yes"/>
      <point x="473" y="262" type="line" smooth="yes"/>
      <point x="473" y="384"/>
      <point x="414" y="442"/>
      <point x="298" y="442" type="curve" smooth="yes"/>
      <point x="214" y="442"/>
      <point x="143" y="397"/>
      <point x="119" y="323" type="curve"/>
      <point x="130" y="323" type="line"/>
      <point x="130" y="532" type="line"/>
      <point x="327" y="532" type="line"/>
      <point x="327" y="568" type="line"/>
      <point x="130" y="568" type="line"/>
      <point x="130" y="705" type="line"/>
      <point x="88" y="705" type="line"/>
      <point x="88" y="568" type="line"/>
      <point x="-7" y="568" type="line"/>
      <point x="-7" y="532" type="line"/>
      <point x="88" y="532" type="line"/>
      <point x="88" y="0" type="line"/>
      <point x="130" y="0" type="line"/>
      <point x="130" y="234" type="line" smooth="yes"/>
      <point x="130" y="336"/>
      <point x="198" y="403"/>
      <point x="299" y="403" type="curve" smooth="yes"/>
      <point x="391" y="403"/>
      <point x="431" y="359"/>
      <point x="431" y="259" type="curve" smooth="yes"/>
      <point x="431" y="55" type="line" smooth="yes"/>
      <point x="431" y="-60"/>
      <point x="405" y="-123"/>
      <point x="290" y="-148" type="curve"/>
    </contour>
  </outline>
</glyph>
<glyph name="e-cy" format="2">
  <advance width="471"/>
  <unicode hex="0454"/>
  <outline>
    <contour>
      <point x="277" y="-8" type="curve" smooth="yes"/>
      <point x="341" y="-8"/>
      <point x="409" y="15"/>
      <point x="443" y="53" type="curve"/>
      <point x="423" y="87" type="line"/>
      <point x="382" y="48"/>
      <point x="329" y="31"/>
      <point x="276" y="31" type="curve" smooth="yes"/>
      <point x="164" y="31"/>
      <point x="102" y="101"/>
      <point x="99" y="213" type="curve"/>
      <point x="92" y="205" type="line"/>
      <point x="359" y="205" type="line"/>
      <point x="359" y="241" type="line"/>
      <point x="91" y="241" type="line"/>
      <point x="99" y="231" type="line"/>
      <point x="102" y="329"/>
      <point x="158" y="403"/>
      <point x="276" y="403" type="curve" smooth="yes"/>
      <point x="328" y="403"/>
      <point x="382" y="387"/>
      <point x="423" y="347" type="curve"/>
      <point x="443" y="381" type="line"/>
      <point x="409" y="419"/>
      <point x="345" y="442"/>
      <point x="278" y="442" type="curve" smooth="yes"/>
      <point x="139" y="442"/>
      <point x="56" y="357"/>
      <point x="56" y="220" type="curve" smooth="yes"/>
      <point x="56" y="83"/>
      <point x="138" y="-8"/>
    </contour>
  </outline>
</glyph>
<glyph name="lje-cy" format="2">
  <advance width="859"/>
  <unicode hex="0459"/>
  <outline>
    <contour>
      <point x="48" y="-9" type="line"/>
      <point x="155" y="38"/>
      <point x="190" y="122"/>
      <point x="190" y="339" type="curve" smooth="yes"/>
      <point x="190" y="398" type="line"/>
      <point x="424" y="398" type="line"/>
      <point x="424" y="0" type="line"/>
      <point x="639" y="0" type="line" smooth="yes"/>
      <point x="751" y="0"/>
      <point x="811" y="48"/>
      <point x="811" y="136" type="curve" smooth="yes"/>
      <point x="811" y="223"/>
      <point x="751" y="271"/>
      <point x="639" y="271" type="curve" smooth="yes"/>
      <point x="466" y="271" type="line"/>
      <point x="466" y="434" type="line"/>
      <point x="149" y="434" type="line"/>
      <point x="149" y="340" type="line" smooth="yes"/>
      <point x="149" y="138"/>
      <point x="122" y="67"/>
      <point x="26" y="25" type="curve"/>
    </contour>
    <contour>
      <point x="466" y="36" type="line"/>
      <point x="466" y="236" type="line"/>
      <point x="641" y="236" type="line" smooth="yes"/>
      <point x="721" y="236"/>
      <point x="768" y="204"/>
      <point x="768" y="136" type="curve" smooth="yes"/>
      <point x="768" y="67"/>
      <point x="721" y="36"/>
      <point x="641" y="36" type="curve" smooth="yes"/>
    </contour>
  </outline>
</glyph>
<glyph name="yat-cy" format="2">
  <advance width="598"/>
  <unicode hex="0463"/>
  <outline>
    <contour>
      <point x="163" y="0" type="line"/>
      <point x="378" y="0" type="line" smooth="yes"/>
      <point x="490" y="0"/>
      <point x="550" y="48"/>
      <point x="550" y="136" type="curve" smooth="yes"/>
      <point x="550" y="223"/>
      <point x="490" y="271"/>
      <point x="378" y="271" type="curve" smooth="yes"/>
      <point x="205" y="271" type="line"/>
      <point x="205" y="398" type="line"/>
      <point x="365" y="398" type="line"/>
      <point x="365" y="434" type="line"/>
      <point x="205" y="434" type="line"/>
      <point x="205" y="705" type="line"/>
      <point x="163" y="705" type="line"/>
      <point x="163" y="434" type="line"/>
      <point x="3" y="434" type="line"/>
      <point x="3" y="398" type="line"/>
      <point x="163" y="398" type="line"/>
    </contour>
    <contour>
      <point x="205" y="36" type="line"/>
      <point x="205" y="236" type="line"/>
      <point x="380" y="236" type="line" smooth="yes"/>
      <point x="460" y="236"/>
      <point x="507" y="204"/>
      <point x="507" y="136" type="curve" smooth="yes"/>
      <point x="507" y="67"/>
      <point x="460" y="36"/>
      <point x="380" y="36" type="curve" smooth="yes"/>
    </contour>
  </outline>
</glyph>
<glyph name="Yusbig-cy" format="2">
  <advance width="908"/>
  <unicode hex="046A"/>
  <outline>
    <contour>
      <point x="17" y="0" type="line"/>
      <point x="62" y="0" type="line"/>
      <point x="164" y="210" type="line" smooth="yes"/>
      <point x="209" y="303"/>
      <point x="261" y="339"/>
      <point x="340" y="339" type="curve" smooth="yes"/>
      <point x="433" y="339" type="line"/>
      <point x="433" y="0" type="line"/>
      <point x="475" y="0" type="line"/>
      <point x="475" y="339" type="line"/>
      <point x="568" y="339" type="line" smooth="yes"/>
      <point x="647" y="339"/>
      <point x="699" y="303"/>
      <point x="744" y="210" type="curve" smooth="yes"/>
      <point x="846" y="0" type="line"/>
      <point x="891" y="0" type="line"/>
      <point x="774" y="239" type="line" smooth="yes"/>
      <point x="735" y="319"/>
      <point x="680" y="378"/>
      <point x="557" y="378" type="curve" smooth="yes"/>
      <point x="491" y="378" type="line"/>
      <point x="493" y="365" type="line"/>
      <point x="786" y="705" type="line"/>
      <point x="122" y="705" type="line"/>
      <point x="415" y="365" type="line"/>
      <point x="417" y="378" type="line"/>
      <point x="351" y="378" type="line" smooth="yes"/>
      <point x="228" y="378"/>
      <point x="173" y="319"/>
      <point x="134" y="239" type="curve" smooth="yes"/>
    </contour>
    <contour>
      <point x="453" y="382" type="line"/>
      <point x="188" y="694" type="line"/>
      <point x="188" y="666" type="line"/>
      <point x="720" y="666" type="line"/>
      <point x="720" y="694" type="line"/>
      <point x="455" y="382" type="line"/>
    </contour>
  </outline>
</glyph>
<glyph name="yusbig-cy" format="2">
  <advance width="748"/>
  <unicode hex="046B"/>
  <outline>
    <contour>
      <point x="7" y="0" type="line"/>
      <point x="55" y="0" type="line"/>
      <point x="149" y="134" type="line" smooth="yes"/>
      <point x="190" y="192"/>
      <point x="215" y="207"/>
      <point x="281" y="207" type="curve" smooth="yes"/>
      <point x="353" y="207" type="line"/>
      <point x="353" y="0" type="line"/>
      <point x="395" y="0" type="line"/>
      <point x="395" y="207" type="line"/>
      <point x="468" y="207" type="line" smooth="yes"/>
      <point x="534" y="207"/>
      <point x="559" y="192"/>
      <point x="600" y="134" type="curve" smooth="yes"/>
      <point x="694" y="0" type="line"/>
      <point x="741" y="0" type="line"/>
      <point x="641" y="142" type="line" smooth="yes"/>
      <point x="587" y="219"/>
      <point x="559" y="243"/>
      <point x="477" y="243" type="curve" smooth="yes"/>
      <point x="408" y="243" type="line"/>
      <point x="408" y="234" type="line"/>
      <point x="599" y="434" type="line"/>
      <point x="149" y="434" type="line"/>
      <point x="341" y="234" type="line"/>
      <point x="341" y="243" type="line"/>
      <point x="271" y="243" type="line" smooth="yes"/>
      <point x="190" y="243"/>
      <point x="162" y="218"/>
      <point x="107" y="142" type="curve" smooth="yes"/>
    </contour>
    <contour>
      <point x="373" y="253" type="line"/>
      <point x="223" y="413" type="line"/>
      <point x="223" y="399" type="line"/>
      <point x="525" y="399" type="line"/>
      <point x="525" y="413" type="line"/>
      <point x="375" y="253" type="line"/>
    </contour>
  </outline>
</glyph>
<glyph name="gheupturn-cy" format="2">
  <advance width="415"/>
  <unicode hex="0491"/>
  <outline>
    <contour>
      <point x="88" y="0" type="line"/>
      <point x="130" y="0" type="line"/>
      <point x="130" y="397" type="line"/>
      <point x="403" y="397" type="line"/>
      <point x="403" y="552" type="line"/>
      <point x="365" y="552" type="line"/>
      <point x="365" y="434" type="line"/>
      <point x="88" y="434" type="line"/>
    </contour>
  </outline>
</glyph>
<glyph name="Ghestroke-cy" format="2">
  <advance width="558"/>
  <unicode hex="0492"/>
  <outline>
    <contour>
      <point x="127" y="0" type="line"/>
      <point x="169" y="0" type="line"/>
      <point x="169" y="338" type="line"/>
      <point x="359" y="338" type="line"/>
      <point x="359" y="376" type="line"/>
      <point x="169" y="376" type="line"/>
      <point x="169" y="666" type="line"/>
      <point x="545" y="666" type="line"/>
      <point x="545" y="705" type="line"/>
      <point x="127" y="705" type="line"/>
      <point x="127" y="376" type="line"/>
      <point x="27" y="376" type="line"/>
      <point x="27" y="338" type="line"/>
      <point x="127" y="338" type="line"/>
    </contour>
  </outline>
</glyph>
<glyph name="ghemiddlehook-cy" format="2">
  <advance width="529"/>
  <unicode hex="0495"/>
  <outline>
    <contour>
      <point x="303" y="-185" type="line"/>
      <point x="438" y="-157"/>
      <point x="477" y="-86"/>
      <point x="477" y="51" type="curve" smooth="yes"/>
      <point x="477" y="101" type="line" smooth="yes"/>
      <point x="477" y="233"/>
      <point x="418" y="290"/>
      <point x="301" y="290" type="curve" smooth="yes"/>
      <point x="214" y="290"/>
      <point x="146" y="249"/>
      <point x="120" y="179" type="curve"/>
      <point x="130" y="179" type="line"/>
      <point x="130" y="398" type="line"/>
      <point x="403" y="398" type="line"/>
      <point x="403" y="434" type="line"/>
      <point x="88" y="434" type="line"/>
      <point x="88" y="0" type="line"/>
      <point x="130" y="0" type="line"/>
      <point x="130" y="90" type="line" smooth="yes"/>
      <point x="130" y="193"/>
      <point x="199" y="251"/>
      <point x="302" y="251" type="curve" smooth="yes"/>
      <point x="396" y="251"/>
      <point x="435" y="207"/>
      <point x="435" y="97" type="curve" smooth="yes"/>
      <point x="435" y="49" type="line" smooth="yes"/>
      <point x="435" y="-66"/>
      <point x="409" y="-123"/>
      <point x="294" y="-148" type="curve"/>
    </contour>
  </outline>
</glyph>
<glyph name="zedescender-cy" format="2">
  <advance width="477"/>
  <unicode hex="0499"/>
  <outline>
    <contour>
      <point x="229" y="-130" type="line"/>
      <point x="269" y="-130" type="line"/>
      <point x="269" y="-7" type="line"/>
      <point x="374" y="2"/>
      <point x="424" y="49"/>
      <point x="424" y="118" type="curve" smooth="yes"/>
      <point x="424" y="182"/>
      <point x="375" y="227"/>
      <point x="303" y="227" type="curve"/>
      <point x="303" y="216" type="line"/>
      <point x="366" y="222"/>
      <point x="409" y="264"/>
      <point x="409" y="318" type="curve" smooth="yes"/>
      <point x="409" y="395"/>
      <point x="351" y="442"/>
      <point x="238" y="442" type="curve" smooth="yes"/>
      <point x="164" y="442"/>
      <point x="99" y="424"/>
      <point x="44" y="387" type="curve"/>
      <point x="64" y="352" type="line"/>
      <point x="116" y="388"/>
      <point x="171" y="404"/>
      <point x="239" y="404" type="curve" smooth="yes"/>
      <point x="324" y="404"/>
      <point x="366" y="370"/>
      <point x="366" y="318" type="curve" smooth="yes"/>
      <point x="366" y="268"/>
      <point x="328" y="239"/>
      <point x="264" y="239" type="curve" smooth="yes"/>
      <point x="163" y="239" type="line"/>
      <point x="163" y="203" type="line"/>
      <point x="272" y="203" type="line" smooth="yes"/>
      <point x="344" y="203"/>
      <point x="381" y="175"/>
      <point x="381" y="119" type="curve" smooth="yes"/>
      <point x="381" y="62"/>
      <point x="339" y="31"/>
      <point x="233" y="31" type="curve" smooth="yes"/>
      <point x="163" y="31"/>
      <point x="102" y="50"/>
      <point x="56" y="88" type="curve"/>
      <point x="36" y="53" type="line"/>
      <point x="79" y="16"/>
      <point x="149" y="-7"/>
      <point x="229" y="-8" type="curve"/>
    </contour>
  </outline>
</glyph>
<glyph name="kaverticalstroke-cy" format="2">
  <advance width="497"/>
  <unicode hex="049D"/>
  <outline>
    <contour>
      <point x="88" y="0" type="line"/>
      <point x="130" y="0" type="line"/>
      <point x="130" y="207" type="line"/>
      <point x="190" y="207" type="line"/>
      <point x="190" y="97" type="line"/>
      <point x="226" y="97" type="line"/>
      <point x="226" y="215" type="line"/>
      <point x="208" y="207" type="line"/>
      <point x="217" y="207" type="line" smooth="yes"/>
      <point x="285" y="207"/>
      <point x="309" y="191"/>
      <point x="349" y="134" type="curve" smooth="yes"/>
      <point x="443" y="0" type="line"/>
      <point x="490" y="0" type="line"/>
      <point x="391" y="142" type="line" smooth="yes"/>
      <point x="339" y="216"/>
      <point x="313" y="236"/>
      <point x="256" y="242" type="curve"/>
      <point x="275" y="229" type="line"/>
      <point x="462" y="434" type="line"/>
      <point x="412" y="434" type="line"/>
      <point x="237" y="243" type="line"/>
      <point x="226" y="243" type="line"/>
      <point x="226" y="346" type="line"/>
      <point x="190" y="346" type="line"/>
      <point x="190" y="243" type="line"/>
      <point x="130" y="243" type="line"/>
      <point x="130" y="434" type="line"/>
      <point x="88" y="434" type="line"/>
    </contour>
  </outline>
</glyph>
<glyph name="kastroke-cy" format="2">
  <advance width="497"/>
  <unicode hex="049F"/>
  <outline>
    <contour>
      <point x="88" y="0" type="line"/>
      <point x="130" y="0" type="line"/>
      <point x="130" y="207" type="line"/>
      <point x="217" y="207" type="line" smooth="yes"/>
      <point x="283" y="207"/>
      <point x="308" y="192"/>
      <point x="349" y="134" type="curve" smooth="yes"/>
      <point x="443" y="0" type="line"/>
      <point x="490" y="0" type="line"/>
      <point x="391" y="142" type="line" smooth="yes"/>
      <point x="339" y="216"/>
      <point x="313" y="236"/>
      <point x="256" y="242" type="curve"/>
      <point x="275" y="229" type="line"/>
      <point x="462" y="434" type="line"/>
      <point x="412" y="434" type="line"/>
      <point x="237" y="243" type="line"/>
      <point x="130" y="243.003" type="line"/>
      <point x="130" y="532" type="line"/>
      <point x="327" y="532" type="line"/>
      <point x="327" y="568" type="line"/>
      <point x="130" y="568" type="line"/>
      <point x="130" y="705" type="line"/>
      <point x="88" y="705" type="line"/>
      <point x="88" y="568" type="line"/>
      <point x="-7" y="568" type="line"/>
      <point x="-7" y="532" type="line"/>
      <point x="88" y="532" type="line"/>
    </contour>
  </outline>
</glyph>
<glyph name="ustraight-cy" format="2">
  <advance width="510"/>
  <unicode hex="04AF"/>
  <anchor x="255" y="-21" name="center"/>
  <outline>
    <contour>
      <point x="234" y="-180" type="line"/>
      <point x="276" y="-180" type="line"/>
      <point x="276" y="-5" type="line"/>
      <point x="484" y="434" type="line"/>
      <point x="437" y="434" type="line"/>
      <point x="243" y="16" type="line"/>
      <point x="267" y="16" type="line"/>
      <point x="74" y="434" type="line"/>
      <point x="26" y="434" type="line"/>
      <point x="234" y="-5" type="line"/>
    </contour>
  </outline>
</glyph>
<glyph name="cheabkhasian-cy" format="2">
  <advance width="599"/>
  <unicode hex="04BD"/>
  <anchor x="430" y="0" name="ogonek"/>
  <outline>
    <contour>
      <point x="381" y="-8" type="curve" smooth="yes"/>
      <point x="450" y="-8"/>
      <point x="519" y="15"/>
      <point x="563" y="55" type="curve"/>
      <point x="542" y="88" type="line"/>
      <point x="491" y="46"/>
      <point x="441" y="31"/>
      <point x="380" y="31" type="curve" smooth="yes"/>
      <point x="261" y="31"/>
      <point x="193" y="97"/>
      <point x="192" y="212" type="curve"/>
      <point x="188" y="208" type="line"/>
      <point x="571" y="208" type="line"/>
      <point x="571" y="231" type="line" smooth="yes"/>
      <point x="571" y="364"/>
      <point x="498" y="442"/>
      <point x="372" y="442" type="curve" smooth="yes"/>
      <point x="243" y="442"/>
      <point x="160" y="360"/>
      <point x="150" y="240" type="curve"/>
      <point x="156" y="244" type="line"/>
      <point x="140" y="244" type="line" smooth="yes"/>
      <point x="82" y="244"/>
      <point x="62" y="269"/>
      <point x="62" y="316" type="curve" smooth="yes"/>
      <point x="62" y="350" type="line"/>
      <point x="21" y="350" type="line"/>
      <point x="21" y="317" type="line" smooth="yes"/>
      <point x="21" y="249"/>
      <point x="61" y="208"/>
      <point x="140" y="208" type="curve" smooth="yes"/>
      <point x="154" y="208" type="line"/>
      <point x="149" y="213" type="line"/>
      <point x="150" y="77"/>
      <point x="237.995" y="-8"/>
    </contour>
    <contour>
      <point x="372" y="405" type="curve" smooth="yes"/>
      <point x="478" y="405"/>
      <point x="532" y="340"/>
      <point x="532" y="233" type="curve"/>
      <point x="549" y="244" type="line"/>
      <point x="187" y="244" type="line"/>
      <point x="193" y="241" type="line"/>
      <point x="200" y="335"/>
      <point x="261" y="405"/>
    </contour>
  </outline>
</glyph>
<glyph name="kahook-cy" format="2">
  <advance width="514"/>
  <unicode hex="04C4"/>
  <outline>
    <contour>
      <point x="288" y="-185" type="line"/>
      <point x="423" y="-157"/>
      <point x="462" y="-82"/>
      <point x="462" y="35" type="curve" smooth="yes"/>
      <point x="462" y="58" type="line" smooth="yes"/>
      <point x="462" y="189"/>
      <point x="390" y="243"/>
      <point x="272" y="243" type="curve"/>
      <point x="275" y="229" type="line"/>
      <point x="462" y="434" type="line"/>
      <point x="412" y="434" type="line"/>
      <point x="237" y="243" type="line"/>
      <point x="130" y="243" type="line"/>
      <point x="130" y="434" type="line"/>
      <point x="88" y="434" type="line"/>
      <point x="88" y="0" type="line"/>
      <point x="130" y="0" type="line"/>
      <point x="130" y="207" type="line"/>
      <point x="276" y="207" type="line" smooth="yes"/>
      <point x="371" y="207"/>
      <point x="420" y="163"/>
      <point x="420" y="54" type="curve" smooth="yes"/>
      <point x="420" y="32" type="line" smooth="yes"/>
      <point x="420" y="-62"/>
      <point x="394" y="-123"/>
      <point x="279" y="-148" type="curve"/>
    </contour>
  </outline>
</glyph>
<glyph name="enhook-cy" format="2">
  <advance width="568"/>
  <unicode hex="04C8"/>
  <outline>
    <contour>
      <point x="295" y="-193" type="line"/>
      <point x="338" y="-190" type="line" smooth="yes"/>
      <point x="428" y="-184"/>
      <point x="480" y="-124"/>
      <point x="480" y="-21" type="curve" smooth="yes"/>
      <point x="480" y="434" type="line"/>
      <point x="438" y="434" type="line"/>
      <point x="438" y="243" type="line"/>
      <point x="130" y="243" type="line"/>
      <point x="130" y="434" type="line"/>
      <point x="88" y="434" type="line"/>
      <point x="88" y="0" type="line"/>
      <point x="130" y="0" type="line"/>
      <point x="130" y="206" type="line"/>
      <point x="438" y="206" type="line"/>
      <point x="438" y="-22" type="line" smooth="yes"/>
      <point x="438" y="-102"/>
      <point x="401" y="-147"/>
      <point x="333" y="-152" type="curve" smooth="yes"/>
      <point x="292" y="-155" type="line"/>
    </contour>
  </outline>
</glyph>
<glyph name="Emtail-cy" format="2">
  <advance width="854"/>
  <unicode hex="04CD"/>
  <outline>
    <contour>
      <point x="747" y="-150" type="line"/>
      <point x="785" y="-150" type="line"/>
      <point x="848" y="39" type="line"/>
      <point x="746" y="39" type="line"/>
      <point x="746" y="705" type="line"/>
      <point x="710" y="705" type="line"/>
      <point x="402" y="114" type="line"/>
      <point x="444" y="114" type="line"/>
      <point x="134" y="705" type="line"/>
      <point x="98" y="705" type="line"/>
      <point x="98" y="0" type="line"/>
      <point x="137" y="0" type="line"/>
      <point x="137" y="664" type="line"/>
      <point x="116" y="659" type="line"/>
      <point x="406" y="110" type="line"/>
      <point x="441" y="110" type="line"/>
      <point x="728" y="659" type="line"/>
      <point x="707" y="664" type="line"/>
      <point x="707" y="0" type="line"/>
      <point x="797" y="0" type="line"/>
    </contour>
  </outline>
</glyph>
<glyph name="dzeabkhasian-cy" format="2">
  <advance width="476"/>
  <unicode hex="04E1"/>
  <outline>
    <contour>
      <point x="221" y="-188" type="curve" smooth="yes"/>
      <point x="361" y="-188"/>
      <point x="441" y="-120"/>
      <point x="441" y="0" type="curve" smooth="yes"/>
      <point x="441" y="109"/>
      <point x="369" y="172"/>
      <point x="236" y="172" type="curve" smooth="yes"/>
      <point x="174" y="172" type="line"/>
      <point x="177" y="153" type="line"/>
      <point x="411" y="404" type="line"/>
      <point x="411" y="434" type="line"/>
      <point x="38" y="434" type="line"/>
      <point x="38" y="398" type="line"/>
      <point x="365" y="398" type="line"/>
      <point x="365" y="410" type="line"/>
      <point x="131" y="158" type="line"/>
      <point x="131" y="135" type="line"/>
      <point x="238" y="135" type="line" smooth="yes"/>
      <point x="345" y="135"/>
      <point x="399" y="86"/>
      <point x="399" y="-1" type="curve" smooth="yes"/>
      <point x="399" y="-100"/>
      <point x="342" y="-150"/>
      <point x="221" y="-150" type="curve" smooth="yes"/>
      <point x="146" y="-150"/>
      <point x="91" y="-133"/>
      <point x="43" y="-98" type="curve"/>
      <point x="23" y="-133" type="line"/>
      <point x="69" y="-169"/>
      <point x="138" y="-188"/>
    </contour>
  </outline>
</glyph>
<glyph name="gestrokehook-cy" format="2">
  <advance width="432"/>
  <unicode hex="04FB"/>
  <outline>
    <contour>
      <point x="67" y="-180" type="line"/>
      <point x="100" y="-177" type="line" smooth="yes"/>
      <point x="175" y="-170"/>
      <point x="221" y="-116"/>
      <point x="221" y="0" type="curve" smooth="yes"/>
      <point x="221" y="36" type="line"/>
      <point x="147" y="36" type="line"/>
      <point x="147" y="200" type="line"/>
      <point x="297" y="200" type="line"/>
      <point x="297" y="236" type="line"/>
      <point x="147" y="236" type="line"/>
      <point x="147" y="398" type="line"/>
      <point x="420" y="398" type="line"/>
      <point x="420" y="434" type="line"/>
      <point x="105" y="434" type="line"/>
      <point x="105" y="236" type="line"/>
      <point x="5" y="236" type="line"/>
      <point x="5" y="200" type="line"/>
      <point x="105" y="200" type="line"/>
      <point x="105" y="0" type="line"/>
      <point x="183" y="0" type="line"/>
      <point x="183" y="-90"/>
      <point x="157" y="-132"/>
      <point x="98" y="-139" type="curve" smooth="yes"/>
      <point x="64" y="-143" type="line"/>
    </contour>
  </outline>
</glyph>
<glyph name="elhook-cy" format="2">
  <advance width="554"/>
  <unicode hex="0513"/>
  <outline>
    <contour>
      <point x="281" y="-193" type="line"/>
      <point x="324" y="-190" type="line" smooth="yes"/>
      <point x="414" y="-184"/>
      <point x="466" y="-124"/>
      <point x="466" y="-21" type="curve" smooth="yes"/>
      <point x="466" y="434" type="line"/>
      <point x="149" y="434" type="line"/>
      <point x="149" y="341" type="line" smooth="yes"/>
      <point x="149" y="138"/>
      <point x="122" y="67"/>
      <point x="26" y="25" type="curve"/>
      <point x="48" y="-9" type="line"/>
      <point x="155" y="38"/>
      <point x="190" y="122"/>
      <point x="190" y="339" type="curve" smooth="yes"/>
      <point x="190" y="398" type="line"/>
      <point x="424" y="398" type="line"/>
      <point x="424" y="-22" type="line" smooth="yes"/>
      <point x="424" y="-102"/>
      <point x="387" y="-147"/>
      <point x="319" y="-152" type="curve" smooth="yes"/>
      <point x="278" y="-155" type="line"/>
    </contour>
  </outline>
</glyph>
<glyph name="Germandbls" format="2">
  <advance width="697"/>
  <unicode hex="1E9E"/>
  <outline>
    <contour>
      <point x="413" y="-8" type="curve" smooth="yes"/>
      <point x="547" y="-8"/>
      <point x="626" y="61"/>
      <point x="626" y="186" type="curve" smooth="yes"/>
      <point x="626" y="290"/>
      <point x="560" y="354"/>
      <point x="456" y="367" type="curve"/>
      <point x="456" y="353" type="line"/>
      <point x="537" y="370"/>
      <point x="588" y="440"/>
      <point x="588" y="529" type="curve" smooth="yes"/>
      <point x="588" y="643"/>
      <point x="498" y="713"/>
      <point x="358" y="713" type="curve" smooth="yes"/>
      <point x="195" y="713"/>
      <point x="96" y="630"/>
      <point x="96" y="470" type="curve" smooth="yes"/>
      <point x="96" y="0" type="line"/>
      <point x="138" y="0" type="line"/>
      <point x="138" y="467" type="line" smooth="yes"/>
      <point x="138" y="604"/>
      <point x="215" y="673"/>
      <point x="359" y="673" type="curve" smooth="yes"/>
      <point x="478" y="673"/>
      <point x="544" y="621"/>
      <point x="544" y="524" type="curve" smooth="yes"/>
      <point x="544" y="427"/>
      <point x="478" y="374"/>
      <point x="375" y="374" type="curve" smooth="yes"/>
      <point x="255" y="374" type="line"/>
      <point x="255" y="335" type="line"/>
      <point x="402" y="335" type="line" smooth="yes"/>
      <point x="523" y="335"/>
      <point x="582" y="281"/>
      <point x="582" y="186" type="curve" smooth="yes"/>
      <point x="582" y="90"/>
      <point x="523" y="32"/>
      <point x="413" y="32" type="curve" smooth="yes"/>
      <point x="343" y="32"/>
      <point x="290" y="49"/>
      <point x="238" y="96" type="curve"/>
      <point x="216" y="61" type="line"/>
      <point x="262" y="16"/>
      <point x="332" y="-8"/>
    </contour>
  </outline>
</glyph>
<glyph name="figuredash" format="2">
  <advance width="600"/>
  <unicode hex="2012"/>
  <outline>
    <contour>
      <point x="76" y="224" type="line"/>
      <point x="524" y="224" type="line"/>
      <point x="524" y="257" type="line"/>
      <point x="76" y="257" type="line"/>
    </contour>
  </outline>
</glyph>
<glyph name="quoteright" format="2">
  <advance width="211"/>
  <unicode hex="2019"/>
  <outline>
    <contour>
      <point x="99" y="522" type="line"/>
      <point x="132" y="557"/>
      <point x="143" y="598"/>
      <point x="143" y="648" type="curve" smooth="yes"/>
      <point x="143" y="705" type="line"/>
      <point x="74" y="705" type="line"/>
      <point x="74" y="635" type="line"/>
      <point x="124" y="635" type="line"/>
      <point x="105" y="640" type="line"/>
      <point x="105" y="605"/>
      <point x="101" y="578"/>
      <point x="71" y="542" type="curve"/>
    </contour>
  </outline>
</glyph>
<glyph name="naira" format="2">
  <advance width="600"/>
  <unicode hex="20A6"/>
  <outline>
    <contour>
      <point x="115" y="0" type="line"/>
      <point x="154" y="0" type="line"/>
      <point x="154" y="649" type="line"/>
      <point x="137" y="649" type="line"/>
      <point x="448" y="0" type="line"/>
      <point x="485" y="0" type="line"/>
      <point x="485" y="259" type="line"/>
      <point x="586" y="259" type="line"/>
      <point x="586" y="295" type="line"/>
      <point x="485" y="295" type="line"/>
      <point x="485" y="409" type="line"/>
      <point x="586" y="409" type="line"/>
      <point x="586" y="445" type="line"/>
      <point x="485" y="445" type="line"/>
      <point x="485" y="705" type="line"/>
      <point x="446" y="705" type="line"/>
      <point x="446" y="56" type="line"/>
      <point x="464" y="56" type="line"/>
      <point x="153" y="705" type="line"/>
      <point x="115" y="705" type="line"/>
      <point x="115" y="445" type="line"/>
      <point x="14" y="445" type="line"/>
      <point x="14" y="409" type="line"/>
      <point x="115" y="409" type="line"/>
      <point x="115" y="295" type="line"/>
      <point x="14" y="295" type="line"/>
      <point x="14" y="259" type="line"/>
      <point x="115" y="259" type="line"/>
    </contour>
  </outline>
</glyph>
<glyph name="dong" format="2">
  <advance width="600"/>
  <unicode hex="20AB"/>
  <outline>
    <contour>
      <point x="277" y="-8" type="curve" smooth="yes"/>
      <point x="365" y="-8"/>
      <point x="426" y="39"/>
      <point x="447" y="111" type="curve"/>
      <point x="439" y="111" type="line"/>
      <point x="439" y="0" type="line"/>
      <point x="480" y="0" type="line"/>
      <point x="480" y="531" type="line"/>
      <point x="558" y="531" type="line"/>
      <point x="558" y="567" type="line"/>
      <point x="480" y="567" type="line"/>
      <point x="480" y="705" type="line"/>
      <point x="438" y="705" type="line"/>
      <point x="438" y="567" type="line"/>
      <point x="282" y="567" type="line"/>
      <point x="282" y="531" type="line"/>
      <point x="438" y="531" type="line"/>
      <point x="438" y="324" type="line"/>
      <point x="447" y="324" type="line"/>
      <point x="426" y="396"/>
      <point x="365" y="442"/>
      <point x="277" y="442" type="curve" smooth="yes"/>
      <point x="156" y="442"/>
      <point x="75" y="357"/>
      <point x="75" y="217" type="curve" smooth="yes"/>
      <point x="75" y="78"/>
      <point x="157" y="-8"/>
    </contour>
    <contour>
      <point x="87" y="-127" type="line"/>
      <point x="480" y="-127" type="line"/>
      <point x="480" y="-91" type="line"/>
      <point x="87" y="-91" type="line"/>
    </contour>
    <contour>
      <point x="279" y="31" type="curve" smooth="yes"/>
      <point x="178" y="31"/>
      <point x="118" y="98"/>
      <point x="118" y="217" type="curve" smooth="yes"/>
      <point x="118" y="334"/>
      <point x="179" y="403"/>
      <point x="279" y="403" type="curve" smooth="yes"/>
      <point x="379" y="403"/>
      <point x="439" y="334"/>
      <point x="439" y="217" type="curve" smooth="yes"/>
      <point x="439" y="99"/>
      <point x="379" y="31"/>
    </contour>
  </outline>
</glyph>
<glyph name="tugrik" format="2">
  <advance width="600"/>
  <unicode hex="20AE"/>
  <outline>
    <contour>
      <point x="279" y="0" type="line"/>
      <point x="321" y="0" type="line"/>
      <point x="321" y="257" type="line"/>
      <point x="475" y="344" type="line"/>
      <point x="475" y="384" type="line"/>
      <point x="321" y="297" type="line"/>
      <point x="321" y="421" type="line"/>
      <point x="475" y="508" type="line"/>
      <point x="475" y="548" type="line"/>
      <point x="321" y="461" type="line"/>
      <point x="321" y="666" type="line"/>
      <point x="582" y="666" type="line"/>
      <point x="582" y="705" type="line"/>
      <point x="18" y="705" type="line"/>
      <point x="18" y="666" type="line"/>
      <point x="279" y="666" type="line"/>
      <point x="279" y="436" type="line"/>
      <point x="125" y="349" type="line"/>
      <point x="125" y="309" type="line"/>
      <point x="279" y="396" type="line"/>
      <point x="279" y="272" type="line"/>
      <point x="125" y="185" type="line"/>
      <point x="125" y="145" type="line"/>
      <point x="279" y="232" type="line"/>
    </contour>
  </outline>
</glyph>
<glyph name="liraTurkish" format="2">
  <advance width="600"/>
  <unicode hex="20BA"/>
  <outline>
    <contour>
      <point x="182" y="0" type="line"/>
      <point x="365" y="0" type="line" smooth="yes"/>
      <point x="489" y="0"/>
      <point x="545" y="51"/>
      <point x="545" y="164" type="curve" smooth="yes"/>
      <point x="545" y="220" type="line"/>
      <point x="505" y="220" type="line"/>
      <point x="505" y="167" type="line" smooth="yes"/>
      <point x="505" y="76"/>
      <point x="464" y="39"/>
      <point x="366" y="39" type="curve" smooth="yes"/>
      <point x="224" y="39" type="line"/>
      <point x="224" y="296" type="line"/>
      <point x="419" y="404" type="line"/>
      <point x="419" y="446" type="line"/>
      <point x="224" y="338" type="line"/>
      <point x="224" y="452" type="line"/>
      <point x="419" y="560" type="line"/>
      <point x="419" y="602" type="line"/>
      <point x="224" y="494" type="line"/>
      <point x="224" y="705" type="line"/>
      <point x="182" y="705" type="line"/>
      <point x="182" y="472" type="line"/>
      <point x="69" y="410" type="line"/>
      <point x="69" y="367" type="line"/>
      <point x="182" y="429" type="line"/>
      <point x="182" y="315" type="line"/>
      <point x="69" y="252" type="line"/>
      <point x="69" y="211" type="line"/>
      <point x="182" y="274" type="line"/>
    </contour>
  </outline>
</glyph>
<glyph name="increment" format="2">
  <advance width="600"/>
  <unicode hex="2206"/>
  <outline>
    <contour>
      <point x="35" y="0" type="line"/>
      <point x="565" y="0" type="line"/>
      <point x="565" y="29" type="line"/>
      <point x="320" y="705" type="line"/>
      <point x="280" y="705" type="line"/>
      <point x="35" y="29" type="line"/>
    </contour>
    <contour>
      <point x="299" y="649" type="line"/>
      <point x="301" y="649" type="line"/>
      <point x="532" y="8" type="line"/>
      <point x="532" y="39" type="line"/>
      <point x="68" y="39" type="line"/>
      <point x="68" y="8" type="line"/>
    </contour>
  </outline>
</glyph>
<glyph name="product" format="2">
  <advance width="600"/>
  <unicode hex="220F"/>
  <outline>
    <contour>
      <point x="56" y="-180" type="line"/>
      <point x="98" y="-180" type="line"/>
      <point x="98" y="666" type="line"/>
      <point x="502" y="666" type="line"/>
      <point x="502" y="-180" type="line"/>
      <point x="544" y="-180" type="line"/>
      <point x="544" y="705" type="line"/>
      <point x="56" y="705" type="line"/>
    </contour>
  </outline>
</glyph>
<glyph name="fi" format="2">
  <advance width="512"/>
  <unicode hex="FB01"/>
  <anchor x="111.775" y="0" name="bottom"/>
  <anchor x="266" y="0" name="caret_1"/>
  <anchor x="414.648" y="0" name="ogonek"/>
  <anchor x="191.82" y="705" name="top"/>
  <outline>
    <contour>
      <point x="105" y="0" type="line"/>
      <point x="147" y="0" type="line"/>
      <point x="147" y="398" type="line"/>
      <point x="385" y="398" type="line"/>
      <point x="385" y="0" type="line"/>
      <point x="427" y="0" type="line"/>
      <point x="427" y="434" type="line"/>
      <point x="142" y="434" type="line"/>
      <point x="147" y="423" type="line"/>
      <point x="147" y="512" type="line" smooth="yes"/>
      <point x="147" y="611"/>
      <point x="186" y="662"/>
      <point x="270" y="667" type="curve" smooth="yes"/>
      <point x="316" y="670" type="line"/>
      <point x="312" y="707" type="line"/>
      <point x="280" y="705" type="line" smooth="yes"/>
      <point x="162" y="698"/>
      <point x="105" y="636"/>
      <point x="105" y="512" type="curve" smooth="yes"/>
      <point x="105" y="423" type="line"/>
      <point x="115" y="434" type="line"/>
      <point x="8" y="434" type="line"/>
      <point x="8" y="398" type="line"/>
      <point x="105" y="398" type="line"/>
    </contour>
    <contour>
      <point x="374" y="569" type="line"/>
      <point x="438" y="569" type="line"/>
      <point x="438" y="632" type="line"/>
      <point x="374" y="632" type="line"/>
    </contour>
  </outline>
</glyph>
<glyph name="__strokehook-cy" format="2">
  <advance width="555"/>
  <anchor x="118" y="0" name="_bottomright"/>
  <outline>
    <contour>
      <point x="95" y="-180" type="line"/>
      <point x="128" y="-177" type="line" smooth="yes"/>
      <point x="203" y="-170"/>
      <point x="249" y="-116"/>
      <point x="249" y="0" type="curve" smooth="yes"/>
      <point x="249" y="39" type="line"/>
      <point x="118" y="39" type="line"/>
      <point x="118" y="0" type="line"/>
      <point x="206" y="0" type="line"/>
      <point x="206" y="-91"/>
      <point x="185" y="-129"/>
      <point x="126" y="-136" type="curve" smooth="yes"/>
      <point x="92" y="-140" type="line"/>
    </contour>
  </outline>
</glyph>
<glyph name="_part.oslash" format="2">
  <advance width="538"/>
  <anchor x="269" y="217" name="center"/>
  <outline>
    <contour>
      <point x="269" y="-8" type="curve" smooth="yes"/>
      <point x="400" y="-8"/>
      <point x="485" y="79"/>
      <point x="485" y="217" type="curve" smooth="yes"/>
      <point x="485" y="355"/>
      <point x="400" y="442"/>
      <point x="269" y="442" type="curve" smooth="yes"/>
      <point x="139" y="442"/>
      <point x="53" y="355"/>
      <point x="53" y="217" type="curve" smooth="yes"/>
      <point x="53" y="79"/>
      <point x="139" y="-8"/>
    </contour>
    <contour>
      <point x="269" y="31" type="curve" smooth="yes"/>
      <point x="162" y="31"/>
      <point x="96" y="100"/>
      <point x="96" y="217" type="curve" smooth="yes"/>
      <point x="96" y="334"/>
      <point x="162" y="403"/>
      <point x="269" y="403" type="curve" smooth="yes"/>
      <point x="376" y="403"/>
      <point x="442" y="334"/>
      <point x="442" y="217" type="curve" smooth="yes"/>
      <point x="442" y="100"/>
      <point x="376" y="31"/>
    </contour>
  </outline>
</glyph>
<glyph name="brevecomb_acutecomb.case" format="2">
  <anchor x="0" y="705" name="_top"/>
  <outline>
    <contour>
      <point x="0" y="760" type="curve" smooth="yes"/>
      <point x="83" y="760"/>
      <point x="137" y="815"/>
      <point x="144" y="907" type="curve"/>
      <point x="111" y="911" type="line"/>
      <point x="106" y="838"/>
      <point x="66" y="796"/>
      <point x="0" y="796" type="curve" smooth="yes"/>
      <point x="-66" y="796"/>
      <point x="-106" y="838"/>
      <point x="-111" y="911" type="curve"/>
      <point x="-144" y="907" type="line"/>
      <point x="-137" y="815"/>
      <point x="-83" y="760"/>
    </contour>
    <contour>
      <point x="-24" y="863" type="line"/>
      <point x="12" y="863" type="line"/>
      <point x="128" y="1013" type="line"/>
      <point x="74" y="1013" type="line"/>
    </contour>
  </outline>
</glyph>
<glyph name="brevecomb_hookabovecomb" format="2">
  <anchor x="0" y="484" name="_top"/>
  <outline>
    <contour>
      <point x="0" y="497" type="curve" smooth="yes"/>
      <point x="85" y="497"/>
      <point x="139" y="558"/>
      <point x="144" y="659" type="curve"/>
      <point x="111" y="663" type="line"/>
      <point x="108" y="581"/>
      <point x="68" y="533"/>
      <point x="0" y="533" type="curve" smooth="yes"/>
      <point x="-68" y="533"/>
      <point x="-108" y="581"/>
      <point x="-111" y="663" type="curve"/>
      <point x="-144" y="659" type="line"/>
      <point x="-139" y="557"/>
      <point x="-85" y="497"/>
    </contour>
    <contour>
      <point x="-17" y="609" type="curve"/>
      <point x="17" y="609" type="line"/>
      <point x="17" y="666"/>
      <point x="89" y="660"/>
      <point x="89" y="722" type="curve" smooth="yes"/>
      <point x="89" y="757"/>
      <point x="58" y="780"/>
      <point x="2" y="780" type="curve" smooth="yes"/>
      <point x="-25" y="780"/>
      <point x="-52" y="774"/>
      <point x="-74" y="762" type="curve"/>
      <point x="-65" y="732" type="line"/>
      <point x="-40" y="742"/>
      <point x="-20" y="746"/>
      <point x="-2" y="746" type="curve" smooth="yes"/>
      <point x="34" y="746"/>
      <point x="50" y="739"/>
      <point x="50" y="720" type="curve" smooth="yes"/>
      <point x="50" y="681"/>
      <point x="-17" y="682"/>
    </contour>
  </outline>
</glyph>
<glyph name="brevecomb_tildecomb" format="2">
  <anchor x="0" y="484" name="_top"/>
  <outline>
    <contour>
      <point x="0" y="497" type="curve" smooth="yes"/>
      <point x="74" y="497"/>
      <point x="128" y="541"/>
      <point x="144" y="615" type="curve"/>
      <point x="111" y="618" type="line"/>
      <point x="97" y="562"/>
      <point x="57" y="533"/>
      <point x="0" y="533" type="curve" smooth="yes"/>
      <point x="-57" y="533"/>
      <point x="-97" y="562"/>
      <point x="-111" y="618" type="curve"/>
      <point x="-144" y="615" type="line"/>
      <point x="-128" y="539"/>
      <point x="-74" y="497"/>
    </contour>
    <contour>
      <point x="-113" y="671" type="line"/>
      <point x="-107" y="721"/>
      <point x="-93" y="742"/>
      <point x="-63" y="742" type="curve" smooth="yes"/>
      <point x="-44" y="742"/>
      <point x="-28" y="728"/>
      <point x="-12" y="713" type="curve" smooth="yes"/>
      <point x="20" y="685"/>
      <point x="38" y="674"/>
      <point x="64" y="674" type="curve" smooth="yes"/>
      <point x="110" y="674"/>
      <point x="142" y="709"/>
      <point x="146" y="779" type="curve"/>
      <point x="113" y="781" type="line"/>
      <point x="107" y="731"/>
      <point x="93" y="710"/>
      <point x="63" y="710" type="curve" smooth="yes"/>
      <point x="47" y="710"/>
      <point x="35" y="719"/>
      <point x="9" y="741" type="curve" smooth="yes"/>
      <point x="-20" y="766"/>
      <point x="-38" y="778"/>
      <point x="-63" y="778" type="curve" smooth="yes"/>
      <point x="-109" y="778"/>
      <point x="-141" y="743"/>
      <point x="-146" y="673" type="curve"/>
    </contour>
  </outline>
</glyph>
<glyph name="circumflexcomb_acutecomb" format="2">
  <anchor x="0" y="484" name="_top"/>
  <outline>
    <contour>
      <point x="-133" y="499" type="line"/>
      <point x="-99" y="499" type="line"/>
      <point x="0" y="637" type="line"/>
      <point x="99" y="499" type="line"/>
      <point x="133" y="499" type="line"/>
      <point x="24" y="675" type="line"/>
      <point x="-24" y="675" type="line"/>
    </contour>
    <contour>
      <point x="85" y="606" type="line"/>
      <point x="121" y="606" type="line"/>
      <point x="227" y="764" type="line"/>
      <point x="173" y="764" type="line"/>
    </contour>
  </outline>
</glyph>
<glyph name="circumflexcomb_hookabovecomb.case" format="2">
  <anchor x="0" y="705" name="_top"/>
  <outline>
    <contour>
      <point x="-133" y="765" type="line"/>
      <point x="-99" y="765" type="line"/>
      <point x="0" y="888" type="line"/>
      <point x="99" y="765" type="line"/>
      <point x="133" y="765" type="line"/>
      <point x="24" y="925" type="line"/>
      <point x="-24" y="925" type="line"/>
    </contour>
    <contour>
      <point x="93" y="866" type="curve"/>
      <point x="127" y="866" type="line"/>
      <point x="127" y="917"/>
      <point x="199" y="912"/>
      <point x="199" y="968" type="curve" smooth="yes"/>
      <point x="199" y="1000"/>
      <point x="168" y="1020"/>
      <point x="112" y="1020" type="curve" smooth="yes"/>
      <point x="84" y="1020"/>
      <point x="57" y="1015"/>
      <point x="36" y="1004" type="curve"/>
      <point x="45" y="975" type="line"/>
      <point x="70" y="984"/>
      <point x="90" y="987"/>
      <point x="108" y="987" type="curve" smooth="yes"/>
      <point x="144" y="987"/>
      <point x="160" y="982"/>
      <point x="160" y="965" type="curve" smooth="yes"/>
      <point x="160" y="930"/>
      <point x="93" y="931"/>
    </contour>
  </outline>
</glyph>
<glyph name="horncomb.case" format="2">
  <anchor x="0" y="705" name="_topright"/>
  <outline>
    <contour>
      <point x="15" y="667" type="line"/>
      <point x="109" y="671"/>
      <point x="160" y="723"/>
      <point x="160" y="817" type="curve" smooth="yes"/>
      <point x="160" y="837" type="line"/>
      <point x="120" y="837" type="line"/>
      <point x="120" y="825" type="line" smooth="yes"/>
      <point x="120" y="748"/>
      <point x="97" y="706"/>
      <point x="0" y="705" type="curve"/>
      <point x="0" y="680" type="line"/>
    </contour>
  </outline>
</glyph>
<glyph name="macroncomb_gravecomb" format="2">
  <anchor x="0" y="484" name="_top"/>
  <outline>
    <contour>
      <point x="-140" y="526" type="line"/>
      <point x="140" y="526" type="line"/>
      <point x="140" y="563" type="line"/>
      <point x="-140" y="563" type="line"/>
    </contour>
    <contour>
      <point x="-18" y="606" type="line"/>
      <point x="18" y="606" type="line"/>
      <point x="-80" y="764" type="line"/>
      <point x="-134" y="764" type="line"/>
    </contour>
  </outline>
</glyph>
<glyph name="nine.tosf" format="2">
  <advance width="600"/>
  <outline>
    <contour>
      <point x="266" y="-188" type="curve" smooth="yes"/>
      <point x="434" y="-188"/>
      <point x="531" y="-65"/>
      <point x="531" y="146" type="curve" smooth="yes"/>
      <point x="531" y="333"/>
      <point x="443" y="442"/>
      <point x="285" y="442" type="curve" smooth="yes"/>
      <point x="159" y="442"/>
      <point x="72" y="358"/>
      <point x="72" y="243" type="curve" smooth="yes"/>
      <point x="72" y="128"/>
      <point x="158" y="43"/>
      <point x="285" y="43" type="curve" smooth="yes"/>
      <point x="400" y="43"/>
      <point x="486" y="114"/>
      <point x="496" y="227" type="curve"/>
      <point x="490" y="227" type="line"/>
      <point x="490" y="142" type="line" smooth="yes"/>
      <point x="490" y="-46"/>
      <point x="409" y="-149"/>
      <point x="266" y="-149" type="curve" smooth="yes"/>
      <point x="204" y="-149"/>
      <point x="142" y="-125"/>
      <point x="93" y="-79" type="curve"/>
      <point x="72" y="-114" type="line"/>
      <point x="116" y="-158"/>
      <point x="195" y="-188"/>
    </contour>
    <contour>
      <point x="290" y="82" type="curve" smooth="yes"/>
      <point x="183" y="82"/>
      <point x="114" y="149"/>
      <point x="114" y="243" type="curve" smooth="yes"/>
      <point x="114" y="337"/>
      <point x="183" y="404"/>
      <point x="290" y="404" type="curve" smooth="yes"/>
      <point x="397" y="404"/>
      <point x="464" y="337"/>
      <point x="464" y="243" type="curve" smooth="yes"/>
      <point x="464" y="149"/>
      <point x="397" y="82"/>
    </contour>
  </outline>
</glyph>
<glyph name="one.ss01" format="2">
  <advance width="600"/>
  <outline>
    <contour>
      <point x="340" y="0" type="line"/>
      <point x="382" y="0" type="line"/>
      <point x="382" y="705" type="line"/>
      <point x="351" y="705" type="line"/>
      <point x="165" y="579" type="line"/>
      <point x="187" y="546" type="line"/>
      <point x="367" y="667" type="line"/>
      <point x="340" y="667" type="line"/>
    </contour>
  </outline>
</glyph>
<glyph name="one.tosf.ss01" format="2">
  <advance width="600"/>
  <outline>
    <contour>
      <point x="308" y="0" type="line"/>
      <point x="350" y="0" type="line"/>
      <point x="350" y="434" type="line"/>
      <point x="319" y="434" type="line"/>
      <point x="139" y="325" type="line"/>
      <point x="160" y="294" type="line"/>
      <point x="334" y="399" type="line"/>
      <point x="308" y="399" type="line"/>
    </contour>
  </outline>
</glyph>
<glyph name="ringcomb.case" format="2">
  <anchor x="0" y="705" name="_top"/>
  <anchor x="0" y="865" name="top"/>
  <outline>
    <contour>
      <point x="0" y="760" type="curve" smooth="yes"/>
      <point x="63" y="760"/>
      <point x="112" y="809"/>
      <point x="112" y="870" type="curve" smooth="yes"/>
      <point x="112" y="931"/>
      <point x="63" y="980"/>
      <point x="0" y="980" type="curve" smooth="yes"/>
      <point x="-63" y="980"/>
      <point x="-112" y="931"/>
      <point x="-112" y="870" type="curve" smooth="yes"/>
      <point x="-112" y="809"/>
      <point x="-63" y="760"/>
    </contour>
    <contour>
      <point x="0" y="792" type="curve" smooth="yes"/>
      <point x="-46" y="792"/>
      <point x="-78" y="826"/>
      <point x="-78" y="870" type="curve" smooth="yes"/>
      <point x="-78" y="914"/>
      <point x="-46" y="948"/>
      <point x="0" y="948" type="curve" smooth="yes"/>
      <point x="46" y="948"/>
      <point x="78" y="914"/>
      <point x="78" y="870" type="curve" smooth="yes"/>
      <point x="78" y="826"/>
      <point x="46" y="792"/>
    </contour>
  </outline>
</glyph>
<glyph name="ringcomb_acutecomb" format="2">
  <anchor x="0" y="484" name="_top"/>
  <outline>
    <contour>
      <point x="0" y="497" type="curve" smooth="yes"/>
      <point x="63" y="497"/>
      <point x="112" y="546"/>
      <point x="112" y="607" type="curve" smooth="yes"/>
      <point x="112" y="631"/>
      <point x="105" y="653"/>
      <point x="92" y="671" type="curve"/>
      <point x="205" y="766" type="line"/>
      <point x="144" y="766" type="line"/>
      <point x="68" y="695" type="line"/>
      <point x="49" y="709"/>
      <point x="26" y="717"/>
      <point x="0" y="717" type="curve" smooth="yes"/>
      <point x="-63" y="717"/>
      <point x="-112" y="668"/>
      <point x="-112" y="607" type="curve" smooth="yes"/>
      <point x="-112" y="546"/>
      <point x="-63" y="497"/>
    </contour>
    <contour>
      <point x="0" y="529" type="curve" smooth="yes"/>
      <point x="-46" y="529"/>
      <point x="-78" y="563"/>
      <point x="-78" y="607" type="curve" smooth="yes"/>
      <point x="-78" y="651"/>
      <point x="-46" y="685"/>
      <point x="0" y="685" type="curve" smooth="yes"/>
      <point x="46" y="685"/>
      <point x="78" y="651"/>
      <point x="78" y="607" type="curve" smooth="yes"/>
      <point x="78" y="563"/>
      <point x="46" y="529"/>
    </contour>
  </outline>
</glyph>
<glyph name="strokecomb.obarred" format="2">
  <anchor x="0" y="221" name="_center"/>
  <outline>
    <contour>
      <point x="-195" y="204" type="line"/>
      <point x="195" y="204" type="line"/>
      <point x="195" y="239" type="line"/>
      <point x="-195" y="239" type="line"/>
    </contour>
  </outline>
</glyph>
<glyph name="three.tosf" format="2">
  <advance width="600"/>
  <outline>
    <contour>
      <point x="301" y="-188" type="curve" smooth="yes"/>
      <point x="433" y="-188"/>
      <point x="515" y="-122"/>
      <point x="515" y="-17" type="curve" smooth="yes"/>
      <point x="515" y="68"/>
      <point x="460" y="125"/>
      <point x="368" y="140" type="curve"/>
      <point x="368" y="130" type="line"/>
      <point x="446" y="151"/>
      <point x="496" y="211"/>
      <point x="496" y="287" type="curve" smooth="yes"/>
      <point x="496" y="384"/>
      <point x="425" y="442"/>
      <point x="299" y="442" type="curve" smooth="yes"/>
      <point x="223" y="442"/>
      <point x="152" y="422"/>
      <point x="94" y="383" type="curve"/>
      <point x="112" y="348" type="line"/>
      <point x="168" y="385"/>
      <point x="232" y="403"/>
      <point x="299" y="403" type="curve" smooth="yes"/>
      <point x="399" y="403"/>
      <point x="454" y="360"/>
      <point x="454" y="287" type="curve" smooth="yes"/>
      <point x="454" y="203"/>
      <point x="388" y="150"/>
      <point x="291" y="150" type="curve" smooth="yes"/>
      <point x="193" y="150" type="line"/>
      <point x="193" y="113" type="line"/>
      <point x="293" y="113" type="line" smooth="yes"/>
      <point x="408" y="113"/>
      <point x="473" y="69"/>
      <point x="473" y="-17" type="curve" smooth="yes"/>
      <point x="473" y="-102"/>
      <point x="410" y="-149"/>
      <point x="301" y="-149" type="curve" smooth="yes"/>
      <point x="233" y="-149"/>
      <point x="158" y="-129"/>
      <point x="93" y="-79" type="curve"/>
      <point x="73" y="-114" type="line"/>
      <point x="132" y="-162"/>
      <point x="216" y="-188"/>
    </contour>
  </outline>
</glyph>
<glyph name="tildecomb.case" format="2">
  <anchor x="0" y="705" name="_top"/>
  <anchor x="0" y="865" name="top"/>
  <outline>
    <contour>
      <point x="-164" y="792" type="line"/>
      <point x="-155" y="848"/>
      <point x="-132" y="879"/>
      <point x="-92" y="879" type="curve" smooth="yes"/>
      <point x="-73" y="879"/>
      <point x="-54" y="870"/>
      <point x="-16" y="842" type="curve" smooth="yes"/>
      <point x="32" y="807"/>
      <point x="61" y="794"/>
      <point x="90" y="794" type="curve" smooth="yes"/>
      <point x="148" y="794"/>
      <point x="187" y="838"/>
      <point x="196" y="915" type="curve"/>
      <point x="164" y="917" type="line"/>
      <point x="155" y="861"/>
      <point x="132" y="830"/>
      <point x="92" y="830" type="curve" smooth="yes"/>
      <point x="72" y="830"/>
      <point x="55" y="839"/>
      <point x="13" y="869" type="curve" smooth="yes"/>
      <point x="-31" y="901"/>
      <point x="-59" y="915"/>
      <point x="-89" y="915" type="curve" smooth="yes"/>
      <point x="-148" y="915"/>
      <point x="-187" y="871"/>
      <point x="-196" y="794" type="curve"/>
    </contour>
  </outline>
</glyph>
<glyph name="tildecomb_acutecomb" format="2">
  <anchor x="0" y="484" name="_top"/>
  <outline>
    <contour>
      <point x="-113" y="495" type="line"/>
      <point x="-107" y="544"/>
      <point x="-93" y="565"/>
      <point x="-63" y="565" type="curve" smooth="yes"/>
      <point x="-46" y="565"/>
      <point x="-30" y="553"/>
      <point x="-9" y="535" type="curve" smooth="yes"/>
      <point x="20" y="509"/>
      <point x="39" y="497"/>
      <point x="64" y="497" type="curve" smooth="yes"/>
      <point x="109" y="497"/>
      <point x="141" y="532"/>
      <point x="146" y="602" type="curve"/>
      <point x="113" y="604" type="line"/>
      <point x="107" y="555"/>
      <point x="93" y="534"/>
      <point x="63" y="534" type="curve" smooth="yes"/>
      <point x="46" y="534"/>
      <point x="33" y="544"/>
      <point x="9" y="564" type="curve" smooth="yes"/>
      <point x="-21" y="591"/>
      <point x="-39" y="602"/>
      <point x="-63" y="602" type="curve" smooth="yes"/>
      <point x="-109" y="602"/>
      <point x="-141" y="567"/>
      <point x="-146" y="497" type="curve"/>
    </contour>
    <contour>
      <point x="-18" y="615" type="line"/>
      <point x="18" y="615" type="line"/>
      <point x="134" y="776" type="line"/>
      <point x="80" y="776" type="line"/>
    </contour>
  </outline>
</glyph>
<glyph name="two.tosf" format="2">
  <advance width="600"/>
  <outline>
    <contour>
      <point x="112" y="0" type="line"/>
      <point x="502" y="0" type="line"/>
      <point x="502" y="37" type="line"/>
      <point x="164" y="37" type="line"/>
      <point x="164" y="20" type="line"/>
      <point x="386" y="118"/>
      <point x="483" y="206"/>
      <point x="483" y="303" type="curve" smooth="yes"/>
      <point x="483" y="392"/>
      <point x="417" y="442"/>
      <point x="302" y="442" type="curve" smooth="yes"/>
      <point x="224" y="442"/>
      <point x="151" y="422"/>
      <point x="94" y="383" type="curve"/>
      <point x="112" y="348" type="line"/>
      <point x="168" y="385"/>
      <point x="232" y="403"/>
      <point x="302" y="403" type="curve" smooth="yes"/>
      <point x="393" y="403"/>
      <point x="440" y="369"/>
      <point x="440" y="303" type="curve" smooth="yes"/>
      <point x="440" y="221"/>
      <point x="357" y="139"/>
      <point x="112" y="31" type="curve"/>
    </contour>
  </outline>
</glyph>
<glyph name="zero.tosf" format="2">
  <advance width="600"/>
  <outline>
    <contour>
      <point x="300" y="-8" type="curve" smooth="yes"/>
      <point x="435" y="-8"/>
      <point x="535" y="82"/>
      <point x="535" y="217" type="curve" smooth="yes"/>
      <point x="535" y="352"/>
      <point x="435" y="442"/>
      <point x="300" y="442" type="curve" smooth="yes"/>
      <point x="165" y="442"/>
      <point x="65" y="353"/>
      <point x="65" y="217" type="curve" smooth="yes"/>
      <point x="65" y="82"/>
      <point x="165" y="-8"/>
    </contour>
    <contour>
      <point x="300" y="31" type="curve" smooth="yes"/>
      <point x="188" y="31"/>
      <point x="108" y="106"/>
      <point x="108" y="217" type="curve" smooth="yes"/>
      <point x="108" y="329"/>
      <point x="188" y="403"/>
      <point x="300" y="403" type="curve" smooth="yes"/>
      <point x="413" y="403"/>
      <point x="492" y="329"/>
      <point x="492" y="217" type="curve" smooth="yes"/>
      <point x="492" y="105"/>
      <point x="413" y="31"/>
    </contour>
  </outline>
</glyph>
